<?xml version="1.0" standalone="no"?><!DOCTYPE svg PUBLIC "-//W3C//DTD SVG 1.1//EN" "http://www.w3.org/Graphics/SVG/1.1/DTD/svg11.dtd"><svg t="1764289316029" class="icon" viewBox="0 0 1117 1024" version="1.1" xmlns="http://www.w3.org/2000/svg" p-id="5309" xmlns:xlink="http://www.w3.org/1999/xlink" width="218.1640625" height="200"><path d="M977.454545 837.818182h-372.363636v93.090909h232.727273a46.545455 46.545455 0 1 1 0 93.090909H279.272727a46.545455 46.545455 0 1 1 0-93.090909h232.727273v-93.090909H139.636364a139.636364 139.636364 0 0 1-139.636364-139.636364V186.181818a186.181818 186.181818 0 0 1 186.181818-186.181818h791.272727a139.636364 139.636364 0 0 1 139.636364 139.636364v558.545454a139.636364 139.636364 0 0 1-139.636364 139.636364zM362.775273 251.019636a44.218182 44.218182 0 0 0-63.813818-7.68L156.625455 360.820364a46.08 46.08 0 0 0-16.896 31.604363 415.325091 415.325091 0 0 0 0.884363 61.626182 46.08 46.08 0 0 0 18.152727 32.581818l142.522182 109.521455a43.845818 43.845818 0 0 0 60.509091-6.376727c-0.325818 0.418909-0.418909 0.977455-0.744727 1.396363l2.001454-2.420363c-0.372364 0.418909-0.884364 0.605091-1.256727 1.024a48.081455 48.081455 0 0 0-8.378182-67.304728L225.838545 424.401455l129.722182-107.054546a48.64 48.64 0 0 0 7.214546-66.327273z m296.075636-39.237818a46.545455 46.545455 0 0 0-63.115636 18.618182l-156.066909 286.021818a46.545455 46.545455 0 1 0 81.687272 44.590546l156.066909-286.021819a46.545455 46.545455 0 0 0-18.571636-63.208727zM977.454545 392.424727a46.08 46.08 0 0 0-16.896-31.604363l-142.336-117.480728a44.218182 44.218182 0 0 0-63.813818 7.68 48.546909 48.546909 0 0 0 7.400728 66.420364l129.722181 107.054545-127.581091 98.071273a48.081455 48.081455 0 0 0-8.378181 67.304727c-0.372364-0.418909-0.884364-0.605091-1.256728-1.024l2.001455 2.420364c-0.372364-0.418909-0.418909-0.977455-0.744727-1.396364a43.845818 43.845818 0 0 0 60.509091 6.376728l142.522181-109.521455a46.08 46.08 0 0 0 18.152728-32.581818A415.325091 415.325091 0 0 0 977.454545 392.424727z" fill="#0081EF" p-id="5310"></path></svg>