<?xml version="1.0" standalone="no"?><!DOCTYPE svg PUBLIC "-//W3C//DTD SVG 1.1//EN" "http://www.w3.org/Graphics/SVG/1.1/DTD/svg11.dtd"><svg t="1764144917524" class="icon" viewBox="0 0 1024 1024" version="1.1" xmlns="http://www.w3.org/2000/svg" p-id="9466" xmlns:xlink="http://www.w3.org/1999/xlink" width="200" height="200"><path d="M136.53333333 204.8h750.93333334v614.4H136.53333333z" fill="#E4F5FF" p-id="9467"></path><path d="M887.46666667 853.33333333H136.53333333a34.13333333 34.13333333 0 0 1-34.13333333-34.13333333V204.8a34.13333333 34.13333333 0 0 1 34.13333333-34.13333333h750.93333334a34.13333333 34.13333333 0 0 1 34.13333333 34.13333333v614.4a34.13333333 34.13333333 0 0 1-34.13333333 34.13333333zM170.66666667 785.06666667h682.66666666V238.93333333H170.66666667v546.13333334z" fill="#67B9FF" p-id="9468"></path><path d="M290.13333333 102.4h34.13333334v102.4h-34.13333334zM426.66666667 102.4h34.13333333v102.4h-34.13333333zM563.2 102.4h34.13333333v102.4h-34.13333333zM699.73333333 102.4h34.13333334v102.4h-34.13333334zM290.13333333 819.2h34.13333334v102.4h-34.13333334zM426.66666667 819.2h34.13333333v102.4h-34.13333333zM563.2 819.2h34.13333333v102.4h-34.13333333zM699.73333333 819.2h34.13333334v102.4h-34.13333334zM887.46666667 699.73333333h102.4v34.13333334h-102.4zM887.46666667 563.2h102.4v34.13333333h-102.4zM887.46666667 426.66666667h102.4v34.13333333h-102.4zM887.46666667 290.13333333h102.4v34.13333334h-102.4z" fill="#67B9FF" p-id="9469"></path><path d="M34.13333333 699.73333333h102.4v34.13333334H34.13333333zM34.13333333 563.2h102.4v34.13333333H34.13333333zM34.13333333 426.66666667h102.4v34.13333333H34.13333333zM34.13333333 290.13333333h102.4v34.13333334H34.13333333z" fill="#67B9FF" p-id="9470"></path><path d="M343.58613333 518.51946667l52.9408 16.00853333c-3.54986667 14.88213333-9.18186667 27.2384-16.7936 37.20533333s-17.13493333 17.47626667-28.4672 22.528-25.77066667 7.61173333-43.28106666 7.61173334c-21.23093333 0-38.6048-3.072-52.05333334-9.25013334-13.48266667-6.144-25.088-16.9984-34.85013333-32.52906666s-14.67733333-35.46453333-14.67733333-59.6992c0-32.32426667 8.6016-57.17333333 25.8048-74.5472 17.2032-17.37386667 41.54026667-26.112 72.97706666-26.112 24.64426667 0 43.96373333 4.98346667 58.0608 14.9504s24.576 25.25866667 31.40266667 45.8752L341.33333333 472.3712a46.2848 46.2848 0 0 0-5.87093333-13.07306667 35.0208 35.0208 0 0 0-12.3904-10.68373333 35.60106667 35.60106667 0 0 0-16.384-3.72053333c-13.68746667 0-24.1664 5.49546667-31.47093333 16.52053333-5.49546667 8.15786667-8.26026667 20.992-8.26026667 38.46826667 0 21.67466667 3.31093333 36.52266667 9.86453333 44.544s15.83786667 12.04906667 27.7504 12.04906666c11.5712 0 20.30933333-3.24266667 26.2144-9.728 5.90506667-6.48533333 10.1376-15.872 12.8-28.22826666zM425.60853333 403.0464h100.38613334c21.87946667 0 38.1952 5.18826667 49.11786666 15.59893333 10.8544 10.41066667 16.34986667 25.1904 16.34986667 44.40746667 0 19.72906667-5.9392 35.15733333-17.78346667 46.25066667-11.84426667 11.09333333-29.93493333 16.65706667-54.34026666 16.65706666h-33.0752v72.53333334h-60.65493334v-195.44746667z m60.65493334 83.3536h14.81386666c11.63946667 0 19.83146667-2.01386667 24.54186667-6.07573333a19.5584 19.5584 0 0 0 7.0656-15.53066667c0-6.144-2.048-11.33226667-6.144-15.59893333s-11.776-6.41706667-23.07413333-6.41706667h-17.2032v43.6224zM750.25066667 403.0464h60.27946666v116.46293333c0 11.53706667-1.80906667 22.45973333-5.39306666 32.69973334a70.72426667 70.72426667 0 0 1-16.93013334 26.9312 67.24266667 67.24266667 0 0 1-24.20053333 16.21333333c-11.74186667 4.33493333-25.83893333 6.48533333-42.25706667 6.48533333a275.11466667 275.11466667 0 0 1-31.1296-2.01386666c-11.19573333-1.3312-20.61653333-3.95946667-28.16-7.91893334s-14.50666667-9.55733333-20.71893333-16.82773333a62.464 62.464 0 0 1-12.86826667-22.528 118.54506667 118.54506667 0 0 1-5.59786666-33.0752v-116.46293333h60.3136V522.24c0 10.6496 2.93546667 18.97813333 8.87466666 24.9856 5.90506667 5.97333333 14.09706667 8.97706667 24.61013334 8.97706667 10.41066667 0 18.56853333-2.93546667 24.4736-8.84053334 5.9392-5.90506667 8.87466667-14.26773333 8.87466666-25.12213333v-119.1936h-0.17066666z" fill="#67B9FF" p-id="9471"></path></svg>