<?xml version="1.0" standalone="no"?><!DOCTYPE svg PUBLIC "-//W3C//DTD SVG 1.1//EN" "http://www.w3.org/Graphics/SVG/1.1/DTD/svg11.dtd"><svg t="1764072096435" class="icon" viewBox="0 0 1024 1024" version="1.1" xmlns="http://www.w3.org/2000/svg" p-id="1179" width="200" height="200" xmlns:xlink="http://www.w3.org/1999/xlink"><path d="M456.47 835H256.65a79.87 79.87 0 0 1-79.78-79.79V264.78A79.87 79.87 0 0 1 256.65 185h446.54A79.87 79.87 0 0 1 783 264.78v160.31a25 25 0 0 1-50 0V264.78A29.81 29.81 0 0 0 703.19 235H256.65a29.81 29.81 0 0 0-29.78 29.78v490.47A29.82 29.82 0 0 0 256.65 785h199.82a25 25 0 0 1 0 50z" fill="#0F0F0F" p-id="1180"></path><path d="M630.59 362.11H329.91a25 25 0 1 1 0-50h300.68a25 25 0 0 1 0 50zM524.31 491.09h-194.4a25 25 0 0 1 0-50h194.4a25 25 0 0 1 0 50z" fill="#0F0F0F" p-id="1181"></path><path d="M629 836.46h-1.91l-54.68-1.68a63.34 63.34 0 0 1-61.2-60.84l-2-54.94a63.4 63.4 0 0 1 18.46-47l172.71-172.73a63.24 63.24 0 0 1 89.35 0l56.65 56.65a63.24 63.24 0 0 1 0 89.35L673.7 818a63.45 63.45 0 0 1-44.7 18.46z m116-305.69a13.14 13.14 0 0 0-9.32 3.85L563 707.34a13.19 13.19 0 0 0-3.85 9.8l2 54.94a13.22 13.22 0 0 0 12.77 12.69l54.68 1.68a13.22 13.22 0 0 0 9.72-3.85L811 609.92a13.21 13.21 0 0 0 0-18.65l-56.64-56.65a13.15 13.15 0 0 0-9.31-3.85z" fill="#0969DB" p-id="1182"></path></svg>