<?xml version="1.0" standalone="no"?><!DOCTYPE svg PUBLIC "-//W3C//DTD SVG 1.1//EN" "http://www.w3.org/Graphics/SVG/1.1/DTD/svg11.dtd"><svg t="1768805984788" class="icon" viewBox="0 0 1024 1024" version="1.1" xmlns="http://www.w3.org/2000/svg" p-id="1603" xmlns:xlink="http://www.w3.org/1999/xlink" width="200" height="200"><path d="M665.6 41.728c65.9456 0 121.2928 45.312 136.6016 106.496 5.0688-2.6624 10.8544-4.096 16.9984-4.096a140.8 140.8 0 0 1 140.8 140.8v563.2a140.8 140.8 0 0 1-140.8 140.8H358.4a140.8512 140.8512 0 0 1-135.4752-102.4H204.8a140.8 140.8 0 0 1-140.8-140.8v-563.2A140.8 140.8 0 0 1 204.8 41.728h460.8z m140.8 177.0496v526.9504a140.8 140.8 0 0 1-140.8 140.8l-358.4 0.1024c11.7248 15.5136 30.3104 25.4976 51.2 25.4976h460.8c35.328 0 64-28.672 64-64v-563.2c0-35.328-28.672-64-64-64a38.3488 38.3488 0 0 1-12.8-2.1504zM665.6 118.528H204.8c-35.328 0-64 28.672-64 64v563.2c0 35.328 28.672 64 64 64h460.8c35.328 0 64-28.672 64-64v-563.2c0-35.328-28.672-64-64-64z m-153.6 281.6a38.4 38.4 0 1 1 0 76.8H256a38.4 38.4 0 1 1 0-76.8h256z m102.4-153.6a38.4 38.4 0 1 1 0 76.8H256a38.4 38.4 0 1 1 0-76.8h358.4z" p-id="1604"></path></svg>