<?xml version="1.0" standalone="no"?><!DOCTYPE svg PUBLIC "-//W3C//DTD SVG 1.1//EN" "http://www.w3.org/Graphics/SVG/1.1/DTD/svg11.dtd"><svg height="1024" node-id="1" sillyvg="true" template-height="1024" template-width="1024" version="1.1" viewBox="0 0 1024 1024" width="1024" xmlns="http://www.w3.org/2000/svg" xmlns:xlink="http://www.w3.org/1999/xlink"><defs node-id="78"><linearGradient gradientUnits="objectBoundingBox" id="未命名的渐变_15" node-id="5" spreadMethod="pad" x1="273.35" x2="736.93" y1="823.62" y2="575.37"><stop offset="0" stop-color="#ecf3ff"></stop><stop offset="1" stop-color="#c9e2ff"></stop></linearGradient><linearGradient gradientUnits="objectBoundingBox" id="未命名的渐变_5" node-id="8" spreadMethod="pad" x1="129.6" x2="454.59" y1="772.51" y2="938.08"><stop offset="0" stop-color="#c8e1ff"></stop><stop offset="1" stop-color="#c5dfff"></stop></linearGradient><linearGradient gradientUnits="objectBoundingBox" id="未命名的渐变_12" node-id="11" spreadMethod="pad" x1="488.59" x2="976.15" y1="861.83" y2="851.75"><stop offset="0.06" stop-color="#c5dfff"></stop><stop offset="0.23" stop-color="#8bb4f1"></stop><stop offset="1" stop-color="#a2c5f7"></stop></linearGradient><linearGradient gradientUnits="objectBoundingBox" id="未命名的渐变_33" node-id="15" spreadMethod="pad" x1="459.71" x2="589.21" y1="700.98" y2="700.98"><stop offset="0.17" stop-color="#3386ff"></stop><stop offset="0.51" stop-color="#89b8ff"></stop><stop offset="0.88" stop-color="#2c82ff"></stop></linearGradient><linearGradient gradientUnits="objectBoundingBox" id="未命名的渐变_172" node-id="21" spreadMethod="pad" x1="475.97" x2="163.6" y1="118.39" y2="198.06"><stop offset="0" stop-color="#ffffff" stop-opacity="0.1"></stop><stop offset="0.99" stop-color="#ffffff"></stop></linearGradient><linearGradient gradientUnits="objectBoundingBox" id="未命名的渐变_223" node-id="24" spreadMethod="pad" x1="881.41" x2="803.73" y1="290.4" y2="271.81"><stop offset="0" stop-color="#5e9dff"></stop><stop offset="1" stop-color="#a4c9ff"></stop></linearGradient><linearGradient gradientUnits="objectBoundingBox" id="未命名的渐变_219" node-id="27" spreadMethod="pad" x1="-10288.41" x2="-10062.03" y1="241.72" y2="241.72"><stop offset="0.35" stop-color="#a5c9ff"></stop><stop offset="1" stop-color="#9bc3ff"></stop></linearGradient><linearGradient gradientUnits="objectBoundingBox" id="未命名的渐变_216" node-id="30" spreadMethod="pad" x1="-10059.02" x2="-10026.15" y1="239.35" y2="262.22"><stop offset="0" stop-color="#9bc3ff"></stop><stop offset="1" stop-color="#3e8bff"></stop></linearGradient><linearGradient gradientUnits="objectBoundingBox" id="未命名的渐变_209" node-id="33" spreadMethod="pad" x1="-10370.18" x2="-10033.24" y1="338.11" y2="338.11"><stop offset="0.79" stop-color="#98c0ff"></stop><stop offset="1" stop-color="#468fff"></stop></linearGradient><linearGradient gradientUnits="objectBoundingBox" id="未命名的渐变_27" node-id="36" spreadMethod="pad" x1="479.37" x2="569.55" y1="368.95" y2="368.95"><stop offset="0" stop-color="#3386ff"></stop><stop offset="0.51" stop-color="#0066ff"></stop><stop offset="1" stop-color="#2c82ff"></stop></linearGradient><linearGradient gradientUnits="objectBoundingBox" id="未命名的渐变_186" node-id="40" spreadMethod="pad" x1="134.14" x2="216.83" y1="192.38" y2="122.51"><stop offset="0" stop-color="#a0bee9"></stop><stop offset="0.83" stop-color="#ecf3ff"></stop></linearGradient><linearGradient gradientUnits="objectBoundingBox" id="未命名的渐变_195" node-id="43" spreadMethod="pad" x1="207.26" x2="468.28" y1="120.93" y2="120.93"><stop offset="0.01" stop-color="#ecf3ff"></stop><stop offset="1" stop-color="#b6d2fc"></stop></linearGradient><linearGradient gradientUnits="objectBoundingBox" id="未命名的渐变_204" node-id="46" spreadMethod="pad" x1="471.75" x2="509.64" y1="118.19" y2="144.57"><stop offset="0" stop-color="#b7d3fc"></stop><stop offset="0.99" stop-color="#8cb4f1"></stop></linearGradient><linearGradient gradientUnits="objectBoundingBox" id="未命名的渐变_80" node-id="49" spreadMethod="pad" x1="112.99" x2="501.46" y1="232.07" y2="232.07"><stop offset="0" stop-color="#d4e7ff"></stop><stop offset="0.99" stop-color="#a7c8f7"></stop></linearGradient><linearGradient gradientUnits="objectBoundingBox" id="未命名的渐变_279" node-id="52" spreadMethod="pad" x1="479.36" x2="569.55" y1="33.9" y2="33.9"><stop offset="0" stop-color="#ffffff"></stop><stop offset="1" stop-color="#ffffff" stop-opacity="0"></stop></linearGradient><clipPath id="clip-path" node-id="19"><path d="M 494.37 273.76 L 493.00 311.17 C 493.00 310.70 493.00 310.22 493.00 309.74 L 494.38 272.33 C 494.39 272.81 494.39 273.29 494.37 273.76 Z" fill="#000000" fill-rule="nonzero" node-id="177" stroke="none" target-height="38.840027" target-width="1.3900146" target-x="493" target-y="272.33"></path></clipPath></defs><path d="M 432.50 467.64 C 470.95 444.88 536.22 444.28 578.29 466.27 L 920.88 645.39 C 962.95 667.39 965.88 703.67 927.48 726.39 L 614.81 911.53 C 576.36 934.29 511.09 934.89 469.02 912.89 L 126.43 733.78 C 84.36 711.78 81.38 675.50 119.83 652.78 Z" fill="url(#未命名的渐变_15)" fill-rule="nonzero" node-id="181" stroke="none" target-height="490.61008" target-width="884.49994" target-x="81.38" target-y="444.28"></path><path d="M 126.43 733.76 C 118.81 729.92 111.83 724.91 105.75 718.92 C 102.44 715.61 99.61 711.86 97.33 707.77 C 96.31 705.91 95.45 703.97 94.75 701.97 C 93.40 698.18 92.76 694.19 92.84 690.17 L 90.62 785.17 C 90.25 801.00 101.57 817.00 124.21 828.79 L 466.80 1007.91 L 469.02 912.91 Z" fill="url(#未命名的渐变_5)" fill-rule="nonzero" node-id="183" stroke="none" target-height="317.74" target-width="378.77" target-x="90.25001" target-y="690.17004"></path><path d="M 954.15 692.09 C 954.03 693.09 953.88 694.09 953.67 695.09 C 953.50 695.87 953.28 696.64 953.05 697.41 C 952.77 698.41 952.46 699.32 952.05 700.27 C 951.75 701.03 951.41 701.79 951.05 702.55 C 950.60 703.55 950.05 704.48 949.55 705.43 C 949.13 706.16 948.69 706.88 948.22 707.60 C 947.50 708.68 946.70 709.75 945.86 710.82 C 945.36 711.45 944.86 712.08 944.35 712.69 C 942.70 714.60 940.92 716.40 939.03 718.07 C 937.46 719.46 935.75 720.81 933.94 722.13 C 933.39 722.52 932.78 722.90 932.21 723.29 C 930.68 724.34 929.14 725.39 927.44 726.40 L 614.81 911.51 C 612.28 913.01 609.62 914.40 606.87 915.70 C 605.95 916.14 604.98 916.51 604.04 916.92 C 602.16 917.75 600.28 918.58 598.31 919.32 C 597.16 919.76 595.96 920.14 594.77 920.55 C 592.95 921.18 591.12 921.81 589.23 922.37 C 587.94 922.75 586.61 923.09 585.29 923.44 C 583.45 923.93 581.60 924.44 579.72 924.83 C 578.65 925.07 577.57 925.28 576.50 925.50 C 571.86 926.44 567.14 927.24 562.32 927.79 C 561.62 927.87 560.90 927.91 560.20 927.99 C 557.20 928.29 554.15 928.54 551.09 928.70 C 549.68 928.77 548.25 928.81 546.83 928.85 C 544.83 928.91 542.83 928.94 540.83 928.93 C 539.27 928.93 537.70 928.93 536.13 928.85 C 534.40 928.80 532.67 928.74 530.94 928.64 C 529.21 928.54 527.67 928.43 526.04 928.29 C 524.41 928.15 522.84 928.01 521.24 927.83 C 519.64 927.65 517.94 927.44 516.30 927.21 C 514.66 926.98 513.12 926.76 511.54 926.50 C 509.96 926.24 508.40 925.94 506.83 925.64 C 505.26 925.34 503.45 924.95 501.77 924.57 C 500.32 924.24 498.89 923.89 497.46 923.52 C 495.51 923.02 493.59 922.48 491.68 921.90 C 490.43 921.53 489.19 921.15 487.96 920.75 C 484.33 919.55 480.76 918.27 477.33 916.81 L 477.17 916.75 C 474.39 915.58 471.67 914.29 469.00 912.87 L 466.78 1007.87 C 469.42 1009.25 472.16 1010.54 474.97 1011.74 L 474.97 1011.74 L 475.11 1011.79 C 478.53 1013.25 482.11 1014.54 485.73 1015.73 C 486.17 1015.88 486.57 1016.07 487.01 1016.21 C 487.81 1016.46 488.65 1016.65 489.45 1016.89 C 491.36 1017.46 493.28 1018.00 495.23 1018.51 C 495.93 1018.68 496.60 1018.91 497.30 1019.08 C 498.00 1019.25 498.80 1019.39 499.55 1019.56 C 501.23 1019.94 502.91 1020.29 504.61 1020.62 C 505.44 1020.78 506.24 1020.99 507.08 1021.14 C 507.92 1021.29 508.57 1021.36 509.32 1021.48 C 510.90 1021.74 512.48 1021.98 514.07 1022.20 C 514.95 1022.32 515.81 1022.48 516.69 1022.59 C 517.57 1022.70 518.24 1022.73 519.01 1022.82 C 520.61 1022.99 522.21 1023.14 523.82 1023.28 C 524.69 1023.35 525.55 1023.46 526.42 1023.52 C 527.29 1023.58 527.95 1023.58 528.72 1023.62 C 530.45 1023.72 532.17 1023.79 533.91 1023.84 C 534.79 1023.84 535.67 1023.94 536.55 1023.95 C 537.24 1023.95 537.92 1023.95 538.61 1023.95 C 540.61 1023.95 542.61 1023.95 544.61 1023.86 C 545.55 1023.86 546.49 1023.86 547.43 1023.86 C 547.91 1023.86 548.38 1023.77 548.87 1023.75 C 551.92 1023.59 554.95 1023.35 557.97 1023.04 C 558.57 1022.98 559.19 1022.97 559.79 1022.90 L 560.09 1022.90 C 564.91 1022.34 569.63 1021.55 574.27 1020.60 C 574.78 1020.50 575.32 1020.46 575.83 1020.35 C 576.34 1020.24 576.93 1020.06 577.49 1019.94 C 579.38 1019.51 581.23 1019.04 583.07 1018.55 C 584.39 1018.20 585.71 1017.86 587.01 1017.47 C 588.89 1016.91 590.72 1016.29 592.55 1015.66 C 593.73 1015.25 594.93 1014.87 596.09 1014.43 C 598.09 1013.68 599.94 1012.86 601.82 1012.03 C 602.76 1011.61 603.73 1011.24 604.64 1010.81 C 607.39 1009.50 610.05 1008.11 612.58 1006.61 L 925.25 821.51 C 925.75 821.22 926.25 820.92 926.72 820.62 C 927.89 819.90 928.94 819.15 930.03 818.40 C 930.59 818.01 931.21 817.64 931.75 817.24 C 933.55 815.94 935.24 814.60 936.75 813.24 L 936.80 813.24 C 938.69 811.57 940.46 809.77 942.11 807.86 C 942.27 807.68 942.49 807.51 942.64 807.33 C 943.01 806.89 943.27 806.43 943.64 805.98 C 944.49 804.92 945.29 803.85 946.00 802.76 C 946.21 802.45 946.48 802.15 946.68 801.84 C 946.88 801.53 947.09 801.01 947.33 800.60 C 947.88 799.60 948.33 798.68 948.84 797.72 C 949.02 797.32 949.29 796.94 949.46 796.54 C 949.63 796.14 949.69 795.80 949.83 795.43 C 950.20 794.48 950.51 793.53 950.83 792.58 C 950.97 792.12 951.18 791.67 951.30 791.21 C 951.42 790.75 951.38 790.57 951.45 790.21 C 951.67 789.21 951.81 788.21 951.94 787.21 C 952.00 786.71 952.14 786.21 952.18 785.70 C 952.22 785.19 952.25 784.62 952.26 784.09 L 954.47 689.09 C 954.41 690.09 954.31 691.10 954.15 692.09 Z" fill="url(#未命名的渐变_12)" fill-rule="nonzero" node-id="185" stroke="none" target-height="334.86005" target-width="487.68997" target-x="466.78" target-y="689.08997"></path><path d="M 589.21 700.98 C 589.21 710.07 582.39 718.79 570.25 725.22 C 558.10 731.65 541.63 735.26 524.46 735.26 C 507.29 735.26 490.82 731.65 478.67 725.22 C 466.53 718.79 459.71 710.07 459.71 700.98 C 459.71 691.89 466.53 683.17 478.67 676.74 C 490.82 670.31 507.29 666.70 524.46 666.70 C 541.63 666.70 558.10 670.31 570.25 676.74 C 582.39 683.17 589.21 691.89 589.21 700.98 Z" fill="url(#未命名的渐变_33)" fill-rule="nonzero" node-id="187" stroke="none" target-height="68.56006" target-width="129.50006" target-x="459.70996" target-y="666.69995"></path><g node-id="228"><g clip-path="url(#clip-path)" group-id="1" node-id="193"><path d="M 493.00 309.74 L 494.38 272.33 C 494.38 272.54 494.38 272.75 494.38 272.96 L 493.00 310.37 L 493.00 309.74" fill="#838c98" fill-rule="nonzero" group-id="1,2,3" node-id="195" stroke="none" target-height="38.04001" target-width="1.3800049" target-x="493" target-y="272.33"></path><path d="M 493.00 310.37 L 494.39 273.00 C 494.39 273.27 494.39 273.53 494.39 273.80 L 493.00 311.17 C 493.00 310.91 493.00 310.64 493.00 310.37" fill="#808793" fill-rule="nonzero" group-id="1,2,3" node-id="197" stroke="none" target-height="38.170013" target-width="1.3900146" target-x="493" target-y="273"></path></g></g><path d="M 545.33 929.00 C 518.87 929.00 492.12 923.53 471.10 912.54 L 127.90 734.59 C 106.08 723.18 91.26 707.82 92.83 691.29 C 93.75 681.69 95.13 677.83 97.22 674.44 C 97.82 685.67 97.58 692.44 102.22 701.11 C 107.53 710.76 119.80 720.26 132.08 726.67 L 474.38 900.36 C 515.38 921.79 579.10 921.23 616.46 899.09 L 935.00 721.35 L 620.63 911.05 C 600.47 923.00 573.05 929.00 545.33 929.00 Z" fill="#ffffff" fill-rule="nonzero" node-id="202" stroke="none" target-height="254.56" target-width="843.74" target-x="91.26001" target-y="674.44"></path><path d="M 127.76 253.52 C 120.42 248.20 114.39 240.98 114.32 232.24 C 114.25 223.50 116.60 216.66 123.78 210.74 L 207.69 140.44 C 214.36 134.84 222.80 131.81 231.51 131.87 L 466.35 131.05 L 466.49 131.05 C 485.73 131.05 499.86 145.05 500.14 162.32 C 500.14 162.32 490.08 140.62 466.49 138.67 L 466.38 138.67 L 231.54 139.49 C 224.65 139.45 217.96 141.84 212.65 146.23 L 127.93 215.23 C 122.68 219.73 118.83 225.17 118.93 231.62 C 118.58 241.22 127.76 253.52 127.76 253.52 Z" fill="url(#未命名的渐变_172)" fill-rule="nonzero" node-id="204" stroke="none" target-height="122.469986" target-width="385.89005" target-x="114.25001" target-y="131.05"></path><path d="M 888.38 292.36 L 889.07 292.96 C 889.67 293.51 890.13 294.12 890.66 294.71 C 891.19 295.30 891.66 295.71 892.03 296.22 C 892.58 296.97 893.08 297.76 893.53 298.58 C 893.84 299.10 894.21 299.58 894.47 300.13 C 894.86 301.04 895.20 301.98 895.47 302.93 C 895.62 303.39 895.84 303.84 895.96 304.32 C 896.32 305.73 896.53 307.18 896.58 308.64 L 897.67 338.11 C 897.62 336.65 897.41 335.20 897.05 333.79 C 896.93 333.31 896.71 332.86 896.56 332.39 C 896.29 331.44 895.95 330.51 895.56 329.60 C 895.30 329.07 894.93 328.60 894.62 328.04 C 894.17 327.23 893.67 326.44 893.12 325.69 C 892.72 325.16 892.21 324.69 891.75 324.18 C 891.04 323.35 890.28 322.56 889.47 321.83 L 816.00 260.13 L 814.91 230.66 Z" fill="url(#未命名的渐变_223)" fill-rule="nonzero" node-id="206" stroke="none" target-height="107.45" target-width="82.76001" target-x="814.91003" target-y="230.65999"></path><path d="M 709.05 223.71 L 796.05 224.01 L 796.84 224.01 C 797.43 224.01 798.02 224.06 798.61 224.11 C 799.20 224.16 799.74 224.22 800.30 224.30 C 800.57 224.30 800.84 224.39 801.11 224.43 L 801.36 224.43 L 801.92 224.53 C 802.46 224.63 802.99 224.75 803.51 224.88 C 804.03 225.01 804.57 225.16 805.09 225.32 L 806.09 225.66 L 806.30 225.73 L 806.66 225.86 C 807.19 226.05 807.72 226.27 808.24 226.49 C 808.76 226.71 809.32 226.99 809.85 227.26 L 810.62 227.69 L 810.93 227.87 L 811.52 228.20 C 812.14 228.58 812.74 228.98 813.32 229.40 C 813.85 229.78 814.32 230.19 814.85 230.60 L 816.00 260.13 C 814.75 259.10 813.41 258.19 812.00 257.40 L 811.68 257.22 C 810.30 256.44 808.86 255.77 807.37 255.22 L 807.16 255.15 C 805.62 254.62 804.04 254.20 802.44 253.92 L 802.19 253.92 C 800.52 253.64 798.83 253.49 797.13 253.48 L 710.13 253.18 L 590.65 252.77 L 589.56 223.30 Z" fill="url(#未命名的渐变_219)" fill-rule="nonzero" node-id="208" stroke="none" target-height="36.830017" target-width="226.44" target-x="589.56" target-y="223.29999"></path><path d="M 581.00 254.34 C 580.05 254.65 579.13 255.02 578.22 255.43 C 577.48 255.75 576.75 256.06 576.05 256.43 C 575.18 256.90 574.37 257.43 573.57 257.99 C 572.77 258.55 572.15 258.92 571.50 259.45 L 570.77 260.09 C 569.72 261.01 568.74 262.01 567.85 263.09 C 567.77 263.18 567.70 263.28 567.62 263.38 C 566.68 264.57 565.86 265.85 565.17 267.20 C 565.17 267.26 565.17 267.32 565.09 267.37 C 564.44 268.70 563.92 270.09 563.54 271.53 C 563.54 271.75 563.44 271.98 563.38 272.27 C 563.05 273.68 562.86 275.13 562.81 276.58 L 561.72 247.11 C 561.78 245.87 561.95 244.63 562.21 243.41 L 562.21 243.00 L 562.36 242.43 C 562.36 242.36 562.36 242.29 562.36 242.22 C 562.36 242.15 562.46 241.81 562.52 241.60 C 562.65 241.14 562.80 240.68 562.97 240.22 C 563.14 239.76 563.32 239.31 563.52 238.86 C 563.72 238.41 563.81 238.25 563.96 237.94 L 564.04 237.77 C 564.09 237.68 564.13 237.59 564.17 237.50 C 564.42 237.03 564.68 236.57 564.96 236.12 C 565.24 235.67 565.58 235.12 565.96 234.68 C 566.14 234.43 566.34 234.19 566.53 233.94 L 566.76 233.66 C 566.89 233.49 567.01 233.32 567.15 233.16 C 567.64 232.58 568.15 232.02 568.70 231.49 C 569.01 231.19 569.36 230.92 569.70 230.64 C 570.04 230.36 570.18 230.20 570.43 229.99 C 570.68 229.78 570.86 229.60 571.09 229.42 C 571.52 229.09 572.09 228.85 572.50 228.53 C 573.30 227.97 574.13 227.45 574.98 226.97 C 575.68 226.59 576.41 226.28 577.15 225.97 C 578.06 225.56 578.99 225.20 579.93 224.88 C 580.25 224.78 580.53 224.61 580.86 224.52 C 581.87 224.23 582.89 223.99 583.93 223.80 L 584.03 223.80 L 584.17 223.80 C 584.89 223.68 585.61 223.57 586.35 223.50 C 587.09 223.43 587.75 223.38 588.46 223.36 L 589.61 223.36 L 590.70 252.83 C 588.88 252.83 587.06 252.98 585.26 253.29 L 585.12 253.29 C 583.72 253.54 582.35 253.90 581.00 254.34 Z" fill="url(#未命名的渐变_216)" fill-rule="nonzero" node-id="210" stroke="none" target-height="53.219986" target-width="28.980042" target-x="561.72" target-y="223.36"></path><path d="M 590.66 252.38 C 575.49 252.38 563.01 263.01 562.79 276.23 L 560.79 399.10 C 560.58 412.32 572.71 423.10 587.88 423.10 L 794.39 423.81 C 801.27 423.88 807.98 421.59 813.39 417.34 L 888.90 356.20 C 900.45 346.78 900.70 330.93 889.47 321.43 L 816.00 259.74 C 810.70 255.40 804.06 253.05 797.21 253.09 L 710.21 252.79 Z" fill="url(#未命名的渐变_209)" fill-rule="nonzero" node-id="212" stroke="none" target-height="171.49617" target-width="340.12" target-x="560.58" target-y="252.37999"></path><path d="M 569.55 23.87 L 479.37 23.87 L 479.37 689.00 L 479.49 689.00 C 479.43 689.40 479.39 689.80 479.37 690.21 C 479.37 703.39 499.56 714.08 524.46 714.08 C 549.36 714.08 569.55 703.39 569.55 690.21 C 569.53 689.80 569.49 689.40 569.43 689.00 L 569.55 689.00 Z" fill="url(#未命名的渐变_27)" fill-rule="nonzero" node-id="214" stroke="none" target-height="690.21" target-width="90.17999" target-x="479.37" target-y="23.87"></path><path d="M 569.55 23.87 C 569.55 30.20 564.80 36.27 556.34 40.75 C 547.89 45.23 536.42 47.74 524.46 47.74 C 499.56 47.74 479.37 37.05 479.37 23.87 C 479.37 10.69 499.56 0.00 524.46 -0.00 C 536.42 -0.00 547.89 2.51 556.34 6.99 C 564.80 11.47 569.55 17.54 569.55 23.87 Z" fill="#6fa6ff" fill-rule="nonzero" node-id="216" stroke="none" target-height="47.74001" target-width="90.18002" target-x="479.37003" target-y="-0.00000375"></path><path d="M 123.77 179.31 L 122.98 180.01 C 122.33 180.64 121.72 181.31 121.14 182.01 C 120.61 182.59 120.02 183.14 119.55 183.75 C 118.92 184.62 118.35 185.53 117.83 186.47 C 117.47 187.08 117.04 187.65 116.74 188.27 C 116.27 189.32 115.87 190.39 115.55 191.49 C 115.37 192.03 115.12 192.55 114.98 193.09 C 114.57 194.73 114.32 196.40 114.26 198.09 L 113.00 232.09 C 113.07 230.40 113.31 228.73 113.72 227.09 C 113.86 226.54 114.12 226.02 114.30 225.48 C 114.62 224.38 115.02 223.31 115.49 222.27 C 115.79 221.65 116.22 221.07 116.57 220.47 C 117.09 219.53 117.67 218.62 118.30 217.75 C 118.76 217.14 119.30 216.59 119.88 216.01 C 120.70 215.05 121.58 214.14 122.52 213.30 L 207.26 142.17 L 208.52 108.17 Z" fill="url(#未命名的渐变_186)" fill-rule="nonzero" node-id="218" stroke="none" target-height="123.920006" target-width="95.520004" target-x="113" target-y="108.16999"></path><path d="M 330.52 100.17 L 230.18 100.51 L 229.27 100.51 C 228.59 100.51 227.91 100.57 227.27 100.62 C 226.63 100.67 225.96 100.75 225.27 100.84 L 224.33 101.00 L 224.04 101.00 L 223.39 101.11 C 222.78 101.23 222.16 101.37 221.56 101.52 C 220.96 101.67 220.35 101.84 219.75 102.02 C 219.36 102.14 218.98 102.28 218.60 102.41 L 218.36 102.50 L 217.94 102.64 C 217.33 102.87 216.72 103.11 216.13 103.37 C 215.54 103.63 214.88 103.95 214.27 104.26 L 213.38 104.76 L 213.02 104.96 C 212.79 105.09 212.56 105.21 212.34 105.35 C 211.62 105.78 210.93 106.24 210.26 106.73 C 209.59 107.22 209.07 107.63 208.50 108.11 L 207.24 142.11 C 208.65 140.93 210.16 139.87 211.76 138.96 L 212.13 138.76 C 213.73 137.86 215.40 137.10 217.13 136.49 L 217.38 136.41 C 219.15 135.80 220.97 135.32 222.81 135.00 L 223.10 134.95 C 225.03 134.62 226.98 134.45 228.93 134.44 L 329.28 134.10 L 467.00 133.67 L 468.26 99.67 Z" fill="url(#未命名的渐变_195)" fill-rule="nonzero" node-id="220" stroke="none" target-height="42.440002" target-width="261.02002" target-x="207.24" target-y="99.67"></path><path d="M 478.18 135.48 C 479.29 135.84 480.35 136.28 481.40 136.74 C 482.24 137.11 483.09 137.47 483.89 137.90 C 484.88 138.45 485.84 139.05 486.76 139.71 C 487.56 140.26 488.39 140.77 489.14 141.39 L 489.98 142.13 C 491.20 143.19 492.33 144.36 493.35 145.61 L 493.61 145.94 C 494.69 147.32 495.64 148.80 496.44 150.36 L 496.53 150.55 C 497.29 152.09 497.89 153.69 498.32 155.35 C 498.37 155.60 498.43 155.86 498.50 156.20 C 498.89 157.84 499.11 159.52 499.15 161.20 L 500.41 127.20 C 500.35 125.77 500.16 124.34 499.85 122.94 L 499.85 122.42 C 499.80 122.20 499.74 121.98 499.68 121.76 L 499.62 121.52 C 499.56 121.28 499.51 121.04 499.44 120.80 C 499.28 120.27 499.11 119.74 498.92 119.21 C 498.73 118.68 498.52 118.21 498.29 117.64 C 498.13 117.28 497.95 116.93 497.78 116.58 C 497.75 116.51 497.72 116.45 497.68 116.39 L 497.53 116.07 C 497.25 115.53 496.94 115.00 496.62 114.48 C 496.30 113.96 495.91 113.36 495.52 112.82 C 495.31 112.53 495.08 112.26 494.86 111.98 L 494.60 111.64 C 494.44 111.45 494.30 111.25 494.15 111.07 C 493.58 110.40 492.98 109.76 492.35 109.14 C 492.00 108.79 491.60 108.49 491.23 108.14 C 490.86 107.79 490.67 107.64 490.38 107.40 C 490.09 107.16 489.89 106.95 489.63 106.74 C 489.13 106.35 488.53 106.08 488.00 105.74 C 487.08 105.09 486.12 104.48 485.14 103.93 C 484.34 103.50 483.49 103.14 482.64 102.77 C 481.64 102.31 480.54 101.87 479.43 101.51 C 479.06 101.39 478.74 101.20 478.36 101.10 C 477.20 100.76 476.02 100.48 474.83 100.27 L 474.71 100.27 L 474.55 100.27 C 473.72 100.13 472.88 100.01 472.03 99.92 C 471.18 99.83 470.42 99.79 469.60 99.76 L 468.27 99.76 L 467.01 133.76 C 469.11 133.76 471.22 133.94 473.29 134.29 L 473.45 134.29 C 475.05 134.58 476.63 134.97 478.18 135.48 Z" fill="url(#未命名的渐变_204)" fill-rule="nonzero" node-id="222" stroke="none" target-height="61.439995" target-width="33.399963" target-x="467.01004" target-y="99.76"></path><path d="M 467.00 133.22 C 484.49 133.16 498.89 145.48 499.13 160.72 L 501.44 302.38 C 501.69 317.62 487.70 330.04 470.21 330.10 L 232.11 330.92 C 224.17 331.00 216.44 328.36 210.20 323.45 L 123.20 252.92 C 109.89 242.06 109.59 223.78 122.55 212.84 L 207.29 141.71 C 213.38 136.69 221.04 133.97 228.93 134.00 L 329.27 133.65 Z" fill="url(#未命名的渐变_80)" fill-rule="nonzero" node-id="224" stroke="none" target-height="197.8367" target-width="392.1" target-x="109.59" target-y="133.16"></path><path d="M 524.46 47.74 C 497.04 47.74 475.46 34.68 479.95 20.06 L 479.95 20.06 C 479.95 29.75 499.51 43.73 527.59 44.45 C 552.27 45.09 569.59 33.56 569.59 23.87 L 569.59 23.87 C 569.55 35.92 551.88 47.74 524.46 47.74 Z" fill="url(#未命名的渐变_279)" fill-rule="nonzero" node-id="226" stroke="none" target-height="27.680002" target-width="94.130035" target-x="475.46" target-y="20.06"></path></svg>