<?xml version="1.0" standalone="no"?><!DOCTYPE svg PUBLIC "-//W3C//DTD SVG 1.1//EN" "http://www.w3.org/Graphics/SVG/1.1/DTD/svg11.dtd"><svg height="1024" node-id="1" sillyvg="true" template-height="1024" template-width="1024" version="1.1" viewBox="0 0 1024 1024" width="1024" xmlns="http://www.w3.org/2000/svg" xmlns:xlink="http://www.w3.org/1999/xlink"><defs node-id="81"><clipPath id="clip0_14934_13763" node-id="78"><path d="M 32.00 68.10 L 992.00 68.10 L 992.00 955.90 L 32.00 955.90 Z" fill="#000000" fill-rule="nonzero" node-id="84" stroke="none" target-height="887.797" target-width="960" target-x="32" target-y="68.1013"></path></clipPath><mask height="828" id="mask0_14934_13763" maskUnits="userSpaceOnUse" node-id="54" width="828" x="32" y="128"><path d="M 445.75 955.90 C 674.26 955.90 859.50 770.66 859.50 542.15 C 859.50 313.64 674.26 128.40 445.75 128.40 C 217.24 128.40 32.00 313.64 32.00 542.15 C 32.00 770.66 217.24 955.90 445.75 955.90 Z" fill="#ffffff" fill-rule="nonzero" node-id="88" stroke="none" target-height="827.50195" target-width="827.502" target-x="32" target-y="128.397"></path></mask></defs><g clip-path="url(#clip0_14934_13763)" id="sillyvg_g_0" node-id="92"><path d="M 445.75 954.11 C 673.27 954.11 857.71 769.67 857.71 542.15 C 857.71 314.63 673.27 130.19 445.75 130.19 C 218.23 130.19 33.79 314.63 33.79 542.15 C 33.79 769.67 218.23 954.11 445.75 954.11 Z" fill="none" node-id="94" stroke="#e6e6e6" stroke-linecap="butt" stroke-width="3.5771" target-height="823.9249" target-width="823.9248" target-x="33.7891" target-y="130.185"></path><path d="M 498.95 68.10 L 523.58 68.10 C 524.49 68.11 525.36 68.47 526.00 69.11 C 526.64 69.75 527.01 70.62 527.01 71.53 L 527.01 96.17 C 527.01 97.07 526.64 97.94 526.00 98.58 C 525.36 99.22 524.49 99.58 523.58 99.58 L 498.95 99.58 C 498.04 99.58 497.17 99.22 496.53 98.58 C 495.89 97.94 495.53 97.07 495.53 96.17 L 495.53 71.53 C 495.53 70.62 495.89 69.75 496.53 69.11 C 497.18 68.47 498.05 68.10 498.95 68.10 Z M 523.58 98.48 C 524.20 98.48 524.79 98.23 525.22 97.80 C 525.66 97.37 525.90 96.78 525.91 96.16 L 525.91 71.53 C 525.90 70.91 525.66 70.33 525.22 69.89 C 524.79 69.46 524.20 69.21 523.58 69.21 L 498.96 69.21 C 498.34 69.21 497.75 69.45 497.32 69.89 C 496.88 70.32 496.64 70.91 496.64 71.53 L 496.64 96.16 C 496.64 96.78 496.88 97.37 497.32 97.80 C 497.75 98.23 498.34 98.48 498.95 98.48 L 523.58 98.48 Z" fill="#d6d6e3" fill-rule="nonzero" node-id="96" stroke="none" target-height="31.4832" target-width="31.484985" target-x="495.528" target-y="68.1013"></path><path d="M 523.58 110.63 L 498.95 110.63 C 498.58 110.64 498.20 110.71 497.85 110.86 C 497.50 111.00 497.19 111.21 496.92 111.48 C 496.65 111.75 496.44 112.06 496.30 112.41 C 496.15 112.76 496.08 113.14 496.08 113.52 L 496.08 138.15 C 496.08 138.53 496.15 138.90 496.30 139.25 C 496.44 139.60 496.66 139.91 496.92 140.18 C 497.19 140.44 497.51 140.65 497.86 140.80 C 498.20 140.94 498.58 141.01 498.95 141.01 L 523.58 141.01 C 524.34 141.01 525.07 140.71 525.61 140.18 C 526.15 139.64 526.45 138.91 526.46 138.15 L 526.46 113.52 C 526.45 112.75 526.15 112.02 525.61 111.48 C 525.07 110.95 524.34 110.64 523.58 110.64 L 523.58 110.63 Z" fill="#d6d6e3" fill-rule="nonzero" node-id="98" stroke="none" target-height="30.378006" target-width="30.376984" target-x="496.079" target-y="110.634995"></path><path d="M 523.58 152.62 L 498.95 152.62 C 498.19 152.62 497.46 152.92 496.92 153.46 C 496.38 154.00 496.08 154.73 496.08 155.49 L 496.08 180.12 C 496.08 180.50 496.15 180.87 496.30 181.22 C 496.44 181.57 496.65 181.89 496.92 182.16 C 497.19 182.42 497.50 182.63 497.85 182.78 C 498.20 182.92 498.58 183.00 498.95 182.99 L 523.58 182.99 C 524.34 182.99 525.07 182.69 525.61 182.15 C 526.15 181.61 526.46 180.88 526.46 180.12 L 526.46 155.49 C 526.45 154.73 526.15 154.00 525.61 153.46 C 525.07 152.92 524.34 152.62 523.58 152.62 Z" fill="#d6d6e3" fill-rule="nonzero" node-id="100" stroke="none" target-height="30.378998" target-width="30.37799" target-x="496.078" target-y="152.617"></path><path d="M 526.41 196.96 C 526.29 196.30 525.94 195.70 525.42 195.27 C 524.90 194.84 524.25 194.60 523.58 194.60 L 498.95 194.60 C 498.19 194.60 497.46 194.90 496.92 195.44 C 496.38 195.98 496.08 196.71 496.08 197.47 L 496.08 222.10 C 496.08 222.48 496.15 222.85 496.30 223.20 C 496.44 223.55 496.65 223.87 496.92 224.13 C 497.19 224.40 497.50 224.61 497.85 224.76 C 498.20 224.90 498.58 224.97 498.95 224.97 L 523.58 224.97 C 524.34 224.97 525.07 224.67 525.61 224.13 C 526.15 223.59 526.46 222.86 526.46 222.10 L 526.46 197.48 C 526.46 197.31 526.44 197.14 526.41 196.97 L 526.41 196.96 Z" fill="#d6d6e3" fill-rule="nonzero" node-id="102" stroke="none" target-height="30.378006" target-width="30.380005" target-x="496.078" target-y="194.597"></path><path d="M 524.70 236.80 C 524.34 236.65 523.96 236.58 523.58 236.58 L 498.95 236.58 C 498.58 236.58 498.20 236.65 497.85 236.80 C 497.50 236.94 497.19 237.15 496.92 237.42 C 496.65 237.69 496.44 238.00 496.30 238.35 C 496.15 238.70 496.08 239.08 496.08 239.46 L 496.08 264.08 C 496.08 264.46 496.15 264.83 496.29 265.19 C 496.44 265.54 496.65 265.85 496.92 266.12 C 497.19 266.39 497.50 266.60 497.85 266.74 C 498.20 266.89 498.58 266.96 498.95 266.96 L 523.58 266.96 C 524.34 266.96 525.07 266.65 525.61 266.12 C 526.15 265.58 526.46 264.85 526.46 264.08 L 526.46 239.46 C 526.46 238.89 526.29 238.34 525.98 237.87 C 525.66 237.39 525.22 237.02 524.70 236.80 Z" fill="#d6d6e3" fill-rule="nonzero" node-id="104" stroke="none" target-height="30.381989" target-width="30.378998" target-x="496.077" target-y="236.578"></path><path d="M 575.31 68.65 L 550.68 68.65 C 549.92 68.65 549.19 68.96 548.65 69.50 C 548.11 70.04 547.81 70.77 547.81 71.53 L 547.81 96.17 C 547.81 96.54 547.88 96.92 548.03 97.26 C 548.17 97.61 548.38 97.93 548.65 98.19 C 548.92 98.46 549.24 98.67 549.58 98.81 C 549.93 98.96 550.30 99.03 550.68 99.03 L 575.31 99.03 C 576.07 99.03 576.80 98.73 577.34 98.19 C 577.87 97.65 578.18 96.93 578.18 96.17 L 578.18 71.53 C 578.18 70.77 577.88 70.04 577.34 69.50 C 576.80 68.96 576.07 68.66 575.31 68.65 Z" fill="#d6d6e3" fill-rule="nonzero" node-id="106" stroke="none" target-height="30.374298" target-width="30.375977" target-x="547.806" target-y="68.6545"></path><path d="M 575.31 110.63 L 550.68 110.63 C 550.30 110.64 549.93 110.71 549.58 110.86 C 549.23 111.00 548.91 111.21 548.65 111.48 C 548.38 111.75 548.17 112.06 548.02 112.41 C 547.88 112.76 547.80 113.14 547.81 113.52 L 547.81 138.15 C 547.81 138.53 547.88 138.90 548.03 139.25 C 548.17 139.60 548.38 139.91 548.65 140.18 C 548.92 140.44 549.24 140.65 549.58 140.80 C 549.93 140.94 550.30 141.01 550.68 141.01 L 575.31 141.01 C 576.07 141.01 576.80 140.71 577.34 140.18 C 577.87 139.64 578.18 138.91 578.18 138.15 L 578.18 113.52 C 578.18 112.75 577.88 112.02 577.34 111.48 C 576.80 110.95 576.07 110.64 575.31 110.64 L 575.31 110.63 Z" fill="#8525fa" fill-rule="nonzero" node-id="108" stroke="none" target-height="30.378006" target-width="30.377014" target-x="547.805" target-y="110.634995"></path><path d="M 575.31 152.62 L 550.68 152.62 C 549.92 152.62 549.19 152.92 548.65 153.46 C 548.11 154.00 547.81 154.73 547.81 155.49 L 547.81 180.12 C 547.80 180.50 547.88 180.87 548.02 181.22 C 548.17 181.57 548.38 181.89 548.65 182.16 C 548.91 182.42 549.23 182.63 549.58 182.78 C 549.93 182.92 550.30 183.00 550.68 182.99 L 575.31 182.99 C 576.07 182.99 576.80 182.69 577.34 182.15 C 577.88 181.61 578.18 180.88 578.18 180.12 L 578.18 155.49 C 578.18 154.73 577.88 154.00 577.34 153.46 C 576.80 152.92 576.07 152.62 575.31 152.62 Z" fill="#8525fa" fill-rule="nonzero" node-id="110" stroke="none" target-height="30.378998" target-width="30.377014" target-x="547.805" target-y="152.617"></path><path d="M 575.31 194.60 L 550.68 194.60 C 550.08 194.60 549.49 194.79 549.00 195.14 C 548.51 195.50 548.15 195.99 547.96 196.57 C 547.86 196.86 547.81 197.16 547.81 197.47 L 547.81 222.10 C 547.80 222.48 547.88 222.85 548.02 223.20 C 548.17 223.55 548.38 223.87 548.65 224.13 C 548.91 224.40 549.23 224.61 549.58 224.76 C 549.93 224.90 550.30 224.98 550.68 224.97 L 575.31 224.97 C 576.07 224.97 576.80 224.67 577.34 224.13 C 577.88 223.59 578.18 222.86 578.18 222.10 L 578.18 197.48 C 578.18 196.71 577.88 195.98 577.34 195.44 C 576.80 194.91 576.07 194.60 575.31 194.60 Z" fill="#8525fa" fill-rule="nonzero" node-id="112" stroke="none" target-height="30.37799" target-width="30.377014" target-x="547.805" target-y="194.598"></path><path d="M 575.31 236.58 L 550.68 236.58 C 550.30 236.58 549.93 236.65 549.58 236.80 C 549.23 236.94 548.91 237.15 548.65 237.42 C 548.38 237.69 548.17 238.00 548.02 238.36 C 547.88 238.70 547.80 239.08 547.81 239.46 L 547.81 264.08 C 547.80 264.46 547.88 264.83 548.02 265.18 C 548.17 265.53 548.38 265.85 548.65 266.12 C 548.91 266.38 549.23 266.60 549.58 266.74 C 549.93 266.88 550.30 266.96 550.68 266.96 L 575.31 266.96 C 576.07 266.96 576.80 266.65 577.34 266.12 C 577.88 265.58 578.18 264.85 578.18 264.08 L 578.18 239.46 C 578.18 238.69 577.88 237.96 577.34 237.42 C 576.80 236.88 576.07 236.58 575.31 236.58 Z" fill="#d6d6e3" fill-rule="nonzero" node-id="114" stroke="none" target-height="30.38002" target-width="30.377014" target-x="547.805" target-y="236.579"></path><path d="M 627.03 68.65 L 602.41 68.65 C 601.64 68.65 600.91 68.96 600.37 69.50 C 599.84 70.04 599.53 70.77 599.53 71.53 L 599.53 96.17 C 599.53 96.54 599.61 96.92 599.75 97.26 C 599.90 97.61 600.11 97.93 600.38 98.19 C 600.64 98.46 600.96 98.67 601.31 98.81 C 601.66 98.96 602.03 99.03 602.41 99.03 L 627.03 99.03 C 627.79 99.03 628.52 98.73 629.06 98.19 C 629.60 97.65 629.90 96.93 629.91 96.17 L 629.91 71.53 C 629.91 70.77 629.60 70.04 629.06 69.50 C 628.52 68.96 627.79 68.66 627.03 68.65 Z" fill="#8525fa" fill-rule="nonzero" node-id="116" stroke="none" target-height="30.374298" target-width="30.377014" target-x="599.531" target-y="68.6545"></path><path d="M 627.03 110.63 L 602.41 110.63 C 602.03 110.64 601.66 110.71 601.31 110.86 C 600.96 111.00 600.64 111.21 600.37 111.48 C 600.11 111.75 599.90 112.06 599.75 112.41 C 599.61 112.76 599.53 113.14 599.53 113.52 L 599.53 138.15 C 599.53 138.53 599.61 138.90 599.75 139.25 C 599.90 139.60 600.11 139.91 600.38 140.18 C 600.64 140.44 600.96 140.65 601.31 140.80 C 601.66 140.94 602.03 141.01 602.41 141.01 L 627.03 141.01 C 627.79 141.01 628.52 140.71 629.06 140.18 C 629.60 139.64 629.91 138.91 629.91 138.15 L 629.91 113.52 C 629.91 112.75 629.60 112.02 629.07 111.48 C 628.53 110.95 627.80 110.64 627.03 110.64 L 627.03 110.63 Z" fill="#8525fa" fill-rule="nonzero" node-id="118" stroke="none" target-height="30.378006" target-width="30.376953" target-x="599.533" target-y="110.634995"></path><path d="M 627.03 152.62 L 602.41 152.62 C 601.64 152.62 600.91 152.92 600.37 153.46 C 599.84 154.00 599.53 154.73 599.53 155.49 L 599.53 180.12 C 599.53 180.50 599.60 180.87 599.75 181.22 C 599.89 181.57 600.11 181.89 600.37 182.16 C 600.64 182.42 600.96 182.63 601.31 182.78 C 601.65 182.92 602.03 183.00 602.41 182.99 L 627.03 182.99 C 627.79 182.99 628.53 182.69 629.07 182.15 C 629.61 181.61 629.91 180.88 629.91 180.12 L 629.91 155.49 C 629.91 154.73 629.60 154.00 629.06 153.46 C 628.52 152.92 627.79 152.62 627.03 152.62 Z" fill="#d6d6e3" fill-rule="nonzero" node-id="120" stroke="none" target-height="30.378998" target-width="30.37799" target-x="599.53" target-y="152.617"></path><path d="M 627.03 194.60 L 602.41 194.60 C 601.64 194.60 600.91 194.90 600.37 195.44 C 599.84 195.98 599.53 196.71 599.53 197.47 L 599.53 222.10 C 599.53 222.48 599.60 222.85 599.75 223.20 C 599.89 223.55 600.11 223.87 600.37 224.13 C 600.64 224.40 600.96 224.61 601.31 224.76 C 601.65 224.90 602.03 224.98 602.41 224.97 L 627.03 224.97 C 627.79 224.97 628.53 224.67 629.07 224.13 C 629.61 223.59 629.91 222.86 629.91 222.10 L 629.91 197.48 C 629.91 196.71 629.60 195.98 629.07 195.44 C 628.53 194.91 627.80 194.60 627.03 194.60 Z" fill="#8525fa" fill-rule="nonzero" node-id="122" stroke="none" target-height="30.37799" target-width="30.37799" target-x="599.53" target-y="194.598"></path><path d="M 627.03 236.58 L 602.41 236.58 C 602.03 236.58 601.65 236.65 601.31 236.80 C 600.96 236.94 600.64 237.15 600.37 237.42 C 600.11 237.69 599.89 238.00 599.75 238.36 C 599.60 238.70 599.53 239.08 599.53 239.46 L 599.53 264.08 C 599.53 264.46 599.60 264.83 599.75 265.18 C 599.89 265.53 600.11 265.85 600.37 266.12 C 600.64 266.38 600.96 266.60 601.31 266.74 C 601.65 266.88 602.03 266.96 602.41 266.96 L 627.03 266.96 C 627.79 266.96 628.53 266.65 629.07 266.12 C 629.60 265.58 629.91 264.85 629.91 264.08 L 629.91 239.46 C 629.91 238.69 629.61 237.96 629.07 237.42 C 628.53 236.88 627.80 236.58 627.03 236.58 Z" fill="#8525fa" fill-rule="nonzero" node-id="124" stroke="none" target-height="30.38002" target-width="30.37799" target-x="599.53" target-y="236.579"></path><path d="M 678.76 68.65 L 654.14 68.65 C 653.37 68.65 652.64 68.96 652.10 69.50 C 651.56 70.04 651.26 70.77 651.26 71.53 L 651.26 96.17 C 651.26 96.54 651.34 96.92 651.48 97.26 C 651.63 97.61 651.84 97.93 652.11 98.19 C 652.37 98.46 652.69 98.67 653.04 98.81 C 653.39 98.96 653.76 99.03 654.14 99.03 L 678.76 99.03 C 679.52 99.03 680.25 98.73 680.79 98.19 C 681.33 97.65 681.63 96.93 681.64 96.17 L 681.64 71.53 C 681.63 70.77 681.33 70.04 680.79 69.50 C 680.25 68.96 679.52 68.66 678.76 68.65 Z" fill="#8525fa" fill-rule="nonzero" node-id="126" stroke="none" target-height="30.3741" target-width="30.376038" target-x="651.261" target-y="68.6545"></path><path d="M 654.14 110.08 L 678.76 110.08 C 679.67 110.09 680.54 110.45 681.18 111.09 C 681.82 111.73 682.19 112.60 682.19 113.51 L 682.19 138.15 C 682.19 139.06 681.82 139.93 681.18 140.56 C 680.54 141.21 679.67 141.57 678.76 141.57 L 654.13 141.57 C 653.22 141.57 652.35 141.21 651.71 140.57 C 651.07 139.93 650.71 139.06 650.71 138.15 L 650.71 113.51 C 650.71 112.60 651.07 111.73 651.71 111.09 C 652.36 110.45 653.23 110.08 654.14 110.08 Z M 678.76 140.46 C 679.38 140.46 679.96 140.22 680.40 139.78 C 680.84 139.35 681.08 138.76 681.08 138.15 L 681.08 113.51 C 681.08 112.90 680.83 112.31 680.40 111.87 C 679.96 111.44 679.37 111.19 678.76 111.19 L 654.14 111.19 C 653.52 111.19 652.93 111.44 652.50 111.87 C 652.06 112.31 651.82 112.90 651.81 113.51 L 651.81 138.15 C 651.81 138.76 652.06 139.35 652.49 139.78 C 652.93 140.22 653.51 140.46 654.13 140.46 L 678.76 140.46 Z" fill="#d6d6e3" fill-rule="nonzero" node-id="128" stroke="none" target-height="31.484993" target-width="31.483032" target-x="650.707" target-y="110.083"></path><path d="M 654.14 152.06 L 678.76 152.06 C 679.67 152.07 680.54 152.43 681.18 153.07 C 681.82 153.72 682.19 154.58 682.19 155.49 L 682.19 180.12 C 682.19 181.03 681.83 181.90 681.18 182.54 C 680.54 183.18 679.67 183.55 678.76 183.55 L 654.13 183.55 C 653.68 183.55 653.24 183.46 652.82 183.29 C 652.40 183.12 652.03 182.86 651.71 182.54 C 651.07 181.90 650.71 181.03 650.71 180.12 L 650.71 155.49 C 650.71 154.58 651.07 153.71 651.71 153.07 C 652.36 152.43 653.23 152.07 654.14 152.06 Z M 678.76 182.44 C 679.38 182.44 679.97 182.20 680.40 181.76 C 680.84 181.32 681.08 180.73 681.08 180.12 L 681.08 155.49 C 681.08 154.88 680.83 154.29 680.40 153.85 C 679.96 153.42 679.37 153.17 678.76 153.17 L 654.14 153.17 C 653.52 153.17 652.93 153.42 652.50 153.85 C 652.06 154.29 651.81 154.88 651.81 155.50 L 651.81 180.12 C 651.81 180.74 652.06 181.33 652.49 181.76 C 652.71 181.98 652.96 182.15 653.24 182.27 C 653.52 182.38 653.83 182.44 654.13 182.44 L 678.76 182.44 Z" fill="#d6d6e3" fill-rule="nonzero" node-id="130" stroke="none" target-height="31.485" target-width="31.483032" target-x="650.707" target-y="152.064"></path><path d="M 678.76 194.60 L 654.14 194.60 C 653.37 194.60 652.64 194.90 652.10 195.44 C 651.56 195.98 651.26 196.71 651.26 197.47 L 651.26 222.10 C 651.26 222.48 651.33 222.85 651.48 223.20 C 651.62 223.55 651.83 223.87 652.10 224.13 C 652.37 224.40 652.69 224.61 653.03 224.76 C 653.38 224.90 653.76 224.98 654.14 224.97 L 678.76 224.97 C 679.52 224.97 680.25 224.67 680.79 224.13 C 681.33 223.59 681.64 222.86 681.64 222.10 L 681.64 197.48 C 681.64 196.71 681.33 195.98 680.79 195.44 C 680.25 194.91 679.52 194.60 678.76 194.60 Z" fill="#d6d6e3" fill-rule="nonzero" node-id="132" stroke="none" target-height="30.37799" target-width="30.377014" target-x="651.26" target-y="194.598"></path><path d="M 678.76 236.58 L 654.14 236.58 C 653.76 236.58 653.38 236.65 653.03 236.80 C 652.69 236.94 652.37 237.15 652.10 237.42 C 651.83 237.69 651.62 238.00 651.48 238.36 C 651.33 238.70 651.26 239.08 651.26 239.46 L 651.26 264.08 C 651.26 264.46 651.33 264.83 651.48 265.18 C 651.62 265.53 651.83 265.85 652.10 266.12 C 652.37 266.38 652.69 266.60 653.03 266.74 C 653.38 266.88 653.76 266.96 654.14 266.96 L 678.76 266.96 C 679.52 266.96 680.25 266.65 680.79 266.12 C 681.33 265.58 681.64 264.85 681.64 264.08 L 681.64 239.46 C 681.64 238.69 681.33 237.96 680.79 237.42 C 680.25 236.88 679.52 236.58 678.76 236.58 Z" fill="#8525fa" fill-rule="nonzero" node-id="134" stroke="none" target-height="30.38002" target-width="30.377014" target-x="651.26" target-y="236.579"></path><path d="M 705.85 68.10 L 730.49 68.10 C 731.40 68.11 732.27 68.47 732.91 69.11 C 733.55 69.75 733.91 70.62 733.92 71.53 L 733.92 96.17 C 733.91 97.07 733.55 97.94 732.91 98.58 C 732.27 99.22 731.40 99.58 730.49 99.59 L 705.85 99.59 C 704.95 99.58 704.08 99.22 703.44 98.58 C 702.80 97.94 702.44 97.07 702.43 96.17 L 702.43 71.53 C 702.44 70.62 702.80 69.75 703.44 69.11 C 704.08 68.47 704.94 68.11 705.85 68.10 Z M 730.49 98.48 C 731.10 98.48 731.69 98.23 732.13 97.80 C 732.56 97.37 732.81 96.78 732.81 96.16 L 732.81 71.53 C 732.81 70.91 732.56 70.33 732.13 69.89 C 731.69 69.46 731.10 69.21 730.49 69.21 L 705.85 69.21 C 705.24 69.21 704.65 69.46 704.22 69.89 C 703.78 70.33 703.54 70.92 703.54 71.53 L 703.54 96.16 C 703.54 96.78 703.78 97.37 704.22 97.80 C 704.65 98.23 705.24 98.48 705.85 98.48 L 730.49 98.48 Z" fill="#d6d6e3" fill-rule="nonzero" node-id="136" stroke="none" target-height="31.484398" target-width="31.483032" target-x="702.435" target-y="68.1013"></path><path d="M 705.85 110.08 L 730.49 110.08 C 731.40 110.09 732.27 110.45 732.91 111.09 C 733.55 111.73 733.91 112.60 733.92 113.51 L 733.92 138.15 C 733.91 139.06 733.55 139.93 732.91 140.56 C 732.27 141.21 731.40 141.57 730.49 141.57 L 705.85 141.57 C 704.95 141.57 704.08 141.21 703.44 140.56 C 702.80 139.92 702.44 139.06 702.43 138.15 L 702.43 113.51 C 702.44 112.61 702.80 111.74 703.44 111.09 C 704.08 110.45 704.94 110.09 705.85 110.08 Z M 705.85 140.46 L 730.49 140.46 C 731.10 140.46 731.69 140.22 732.13 139.78 C 732.56 139.35 732.81 138.76 732.81 138.15 L 732.81 113.51 C 732.81 112.90 732.56 112.31 732.12 111.87 C 731.69 111.44 731.10 111.19 730.49 111.19 L 705.85 111.19 C 705.24 111.19 704.65 111.44 704.22 111.87 C 703.78 112.31 703.54 112.90 703.54 113.51 L 703.54 138.15 C 703.54 138.76 703.78 139.35 704.22 139.78 C 704.65 140.22 705.24 140.46 705.85 140.46 Z" fill="#d6d6e3" fill-rule="nonzero" node-id="138" stroke="none" target-height="31.484993" target-width="31.483032" target-x="702.435" target-y="110.083"></path><path d="M 705.85 152.06 L 730.49 152.06 C 731.40 152.07 732.27 152.43 732.91 153.07 C 733.55 153.72 733.91 154.58 733.92 155.49 L 733.92 180.12 C 733.92 181.03 733.55 181.90 732.91 182.54 C 732.27 183.18 731.40 183.55 730.49 183.55 L 705.85 183.55 C 705.40 183.55 704.96 183.46 704.54 183.28 C 704.13 183.11 703.75 182.86 703.43 182.54 C 703.12 182.22 702.86 181.84 702.69 181.43 C 702.52 181.01 702.43 180.57 702.43 180.12 L 702.43 155.49 C 702.44 154.59 702.80 153.72 703.44 153.07 C 704.08 152.43 704.94 152.07 705.85 152.06 Z M 705.85 182.44 L 730.49 182.44 C 731.10 182.44 731.69 182.20 732.13 181.76 C 732.56 181.32 732.81 180.73 732.81 180.12 L 732.81 155.49 C 732.80 154.88 732.56 154.29 732.12 153.85 C 731.69 153.42 731.10 153.17 730.48 153.17 L 705.85 153.17 C 705.24 153.17 704.65 153.42 704.22 153.85 C 703.78 154.29 703.54 154.88 703.54 155.49 L 703.54 180.12 C 703.54 180.42 703.60 180.72 703.71 181.01 C 703.83 181.29 704.00 181.54 704.21 181.76 C 704.43 181.97 704.68 182.15 704.97 182.26 C 705.25 182.38 705.55 182.44 705.85 182.44 Z" fill="#d6d6e3" fill-rule="nonzero" node-id="140" stroke="none" target-height="31.483002" target-width="31.485107" target-x="702.4329" target-y="152.064"></path><path d="M 730.49 194.60 L 705.85 194.60 C 705.09 194.60 704.36 194.91 703.83 195.44 C 703.29 195.98 702.99 196.71 702.99 197.47 L 702.99 222.10 C 702.99 222.48 703.06 222.85 703.21 223.20 C 703.35 223.55 703.56 223.86 703.83 224.13 C 704.09 224.40 704.41 224.61 704.75 224.75 C 705.10 224.90 705.48 224.97 705.85 224.97 L 730.49 224.97 C 731.25 224.97 731.98 224.67 732.52 224.13 C 733.06 223.59 733.36 222.86 733.36 222.10 L 733.36 197.48 C 733.36 196.72 733.06 195.99 732.52 195.45 C 731.98 194.91 731.25 194.60 730.49 194.60 L 730.49 194.60 Z" fill="#8525fa" fill-rule="nonzero" node-id="142" stroke="none" target-height="30.376999" target-width="30.373962" target-x="702.99" target-y="194.598"></path><path d="M 730.49 236.58 L 705.85 236.58 C 705.48 236.58 705.10 236.66 704.76 236.80 C 704.41 236.95 704.09 237.16 703.83 237.43 C 703.56 237.69 703.35 238.01 703.21 238.36 C 703.06 238.71 702.99 239.08 702.99 239.46 L 702.99 264.08 C 702.99 264.46 703.06 264.83 703.21 265.18 C 703.35 265.53 703.56 265.85 703.83 266.11 C 704.09 266.38 704.41 266.59 704.75 266.74 C 705.10 266.88 705.48 266.96 705.85 266.96 L 730.49 266.96 C 731.25 266.96 731.98 266.65 732.52 266.12 C 733.06 265.58 733.36 264.85 733.36 264.08 L 733.36 239.46 C 733.36 238.69 733.06 237.96 732.52 237.42 C 731.98 236.88 731.25 236.58 730.49 236.58 Z" fill="#d6d6e3" fill-rule="nonzero" node-id="144" stroke="none" target-height="30.378006" target-width="30.373962" target-x="702.99" target-y="236.58"></path><path d="M 757.58 68.10 L 782.22 68.10 C 783.13 68.11 784.00 68.47 784.64 69.11 C 785.28 69.75 785.64 70.62 785.65 71.53 L 785.65 96.17 C 785.64 97.07 785.28 97.94 784.64 98.58 C 784.00 99.22 783.13 99.58 782.22 99.59 L 757.58 99.59 C 756.67 99.58 755.80 99.22 755.16 98.58 C 754.52 97.94 754.16 97.07 754.16 96.17 L 754.16 71.53 C 754.16 70.62 754.52 69.75 755.16 69.11 C 755.80 68.47 756.67 68.11 757.58 68.10 Z M 782.22 98.48 C 782.83 98.48 783.42 98.23 783.86 97.80 C 784.29 97.37 784.54 96.78 784.54 96.16 L 784.54 71.53 C 784.54 70.91 784.29 70.33 783.86 69.89 C 783.42 69.46 782.83 69.21 782.22 69.21 L 757.58 69.21 C 756.97 69.21 756.38 69.46 755.95 69.89 C 755.51 70.33 755.27 70.92 755.27 71.53 L 755.27 96.16 C 755.27 96.78 755.51 97.37 755.95 97.80 C 756.38 98.23 756.97 98.48 757.58 98.48 L 782.22 98.48 Z" fill="#d6d6e3" fill-rule="nonzero" node-id="146" stroke="none" target-height="31.484398" target-width="31.487" target-x="754.162" target-y="68.1013"></path><path d="M 757.58 110.08 L 782.22 110.08 C 783.13 110.09 784.00 110.45 784.64 111.09 C 785.28 111.73 785.64 112.60 785.65 113.51 L 785.65 138.15 C 785.64 139.06 785.28 139.93 784.64 140.56 C 784.00 141.21 783.13 141.57 782.22 141.57 L 757.58 141.57 C 756.67 141.57 755.80 141.21 755.16 140.56 C 754.52 139.92 754.16 139.06 754.16 138.15 L 754.16 113.51 C 754.16 112.61 754.52 111.74 755.16 111.09 C 755.80 110.45 756.67 110.09 757.58 110.08 Z M 757.58 140.46 L 782.22 140.46 C 782.83 140.46 783.42 140.22 783.86 139.78 C 784.29 139.35 784.54 138.76 784.54 138.15 L 784.54 113.51 C 784.54 112.90 784.29 112.31 783.86 111.87 C 783.42 111.44 782.83 111.19 782.22 111.19 L 757.58 111.19 C 756.97 111.19 756.38 111.44 755.95 111.87 C 755.51 112.31 755.27 112.90 755.27 113.51 L 755.27 138.15 C 755.27 138.76 755.51 139.35 755.95 139.78 C 756.38 140.22 756.97 140.46 757.58 140.46 L 757.58 140.46 Z" fill="#d6d6e3" fill-rule="nonzero" node-id="148" stroke="none" target-height="31.484993" target-width="31.487" target-x="754.162" target-y="110.083"></path><path d="M 782.22 152.62 L 757.58 152.62 C 756.82 152.62 756.09 152.93 755.56 153.46 C 755.02 154.00 754.72 154.73 754.72 155.49 L 754.72 180.12 C 754.72 180.50 754.79 180.87 754.93 181.22 C 755.08 181.57 755.29 181.88 755.55 182.15 C 755.82 182.42 756.13 182.63 756.48 182.78 C 756.83 182.92 757.20 182.99 757.58 182.99 L 782.22 182.99 C 782.98 182.99 783.71 182.69 784.25 182.15 C 784.79 181.61 785.09 180.88 785.09 180.12 L 785.09 155.49 C 785.09 154.73 784.79 154.00 784.25 153.46 C 783.71 152.92 782.98 152.62 782.22 152.62 Z" fill="#8525fa" fill-rule="nonzero" node-id="150" stroke="none" target-height="30.377975" target-width="30.374023" target-x="754.71796" target-y="152.617"></path><path d="M 782.22 194.60 L 757.58 194.60 C 756.82 194.60 756.09 194.91 755.56 195.45 C 755.02 195.99 754.72 196.71 754.72 197.47 L 754.72 222.10 C 754.72 222.48 754.79 222.85 754.93 223.20 C 755.08 223.55 755.29 223.86 755.55 224.13 C 755.82 224.40 756.13 224.61 756.48 224.75 C 756.83 224.90 757.20 224.97 757.58 224.97 L 782.22 224.97 C 782.98 224.97 783.71 224.67 784.25 224.13 C 784.79 223.59 785.09 222.86 785.09 222.10 L 785.09 197.48 C 785.09 196.72 784.79 195.99 784.25 195.45 C 783.71 194.91 782.98 194.60 782.22 194.60 L 782.22 194.60 Z" fill="#d6d6e3" fill-rule="nonzero" node-id="152" stroke="none" target-height="30.376999" target-width="30.374023" target-x="754.71796" target-y="194.598"></path><path d="M 757.58 236.03 L 782.22 236.03 C 783.13 236.03 784.00 236.39 784.64 237.03 C 785.29 237.68 785.65 238.55 785.65 239.46 L 785.65 264.08 C 785.65 264.99 785.29 265.86 784.64 266.50 C 784.00 267.15 783.13 267.51 782.22 267.51 L 757.58 267.51 C 757.13 267.51 756.68 267.42 756.27 267.25 C 755.85 267.07 755.48 266.82 755.16 266.50 C 754.84 266.19 754.59 265.81 754.42 265.39 C 754.25 264.97 754.16 264.53 754.16 264.08 L 754.16 239.46 C 754.16 239.01 754.25 238.56 754.42 238.15 C 754.59 237.73 754.84 237.35 755.16 237.03 C 755.48 236.71 755.85 236.46 756.27 236.29 C 756.68 236.12 757.13 236.03 757.58 236.03 Z M 782.22 266.40 C 782.84 266.40 783.43 266.16 783.86 265.72 C 784.30 265.29 784.54 264.70 784.54 264.08 L 784.54 239.46 C 784.54 238.84 784.30 238.25 783.86 237.81 C 783.42 237.38 782.83 237.13 782.22 237.13 L 757.58 237.13 C 757.28 237.13 756.98 237.19 756.70 237.31 C 756.42 237.43 756.16 237.60 755.95 237.81 C 755.73 238.03 755.56 238.29 755.45 238.57 C 755.33 238.85 755.27 239.15 755.27 239.46 L 755.27 264.08 C 755.27 264.38 755.33 264.69 755.45 264.97 C 755.56 265.25 755.73 265.51 755.95 265.72 C 756.16 265.94 756.41 266.11 756.70 266.23 C 756.98 266.34 757.28 266.40 757.58 266.40 L 782.22 266.40 Z" fill="#d6d6e3" fill-rule="nonzero" node-id="154" stroke="none" target-height="31.483002" target-width="31.487976" target-x="754.161" target-y="236.02701"></path><path d="M 833.94 68.65 L 809.31 68.65 C 808.55 68.66 807.82 68.96 807.28 69.50 C 806.75 70.04 806.44 70.77 806.44 71.53 L 806.44 96.17 C 806.44 96.92 806.75 97.65 807.28 98.19 C 807.82 98.73 808.55 99.03 809.31 99.03 L 833.94 99.03 C 834.70 99.03 835.43 98.73 835.97 98.19 C 836.51 97.65 836.82 96.93 836.82 96.17 L 836.82 71.53 C 836.82 70.77 836.51 70.04 835.97 69.50 C 835.43 68.96 834.71 68.66 833.94 68.65 Z" fill="#8525fa" fill-rule="nonzero" node-id="156" stroke="none" target-height="30.373497" target-width="30.375061" target-x="806.44495" target-y="68.6545"></path><path d="M 833.94 110.63 L 809.31 110.63 C 808.55 110.64 807.82 110.94 807.28 111.48 C 806.75 112.02 806.44 112.75 806.44 113.51 L 806.44 138.15 C 806.44 138.91 806.75 139.63 807.28 140.17 C 807.82 140.71 808.55 141.01 809.31 141.01 L 833.94 141.01 C 834.70 141.01 835.43 140.71 835.97 140.17 C 836.51 139.63 836.82 138.91 836.82 138.15 L 836.82 113.52 C 836.82 112.75 836.51 112.02 835.98 111.48 C 835.44 110.94 834.71 110.64 833.94 110.63 Z" fill="#8525fa" fill-rule="nonzero" node-id="158" stroke="none" target-height="30.374008" target-width="30.375061" target-x="806.44495" target-y="110.634995"></path><path d="M 833.94 152.62 L 809.31 152.62 C 808.55 152.62 807.82 152.93 807.28 153.46 C 806.75 154.00 806.44 154.73 806.44 155.49 L 806.44 180.12 C 806.44 180.50 806.52 180.87 806.66 181.22 C 806.80 181.57 807.01 181.88 807.28 182.15 C 807.55 182.42 807.86 182.63 808.21 182.78 C 808.56 182.92 808.93 182.99 809.31 182.99 L 833.94 182.99 C 834.71 182.99 835.44 182.69 835.98 182.15 C 836.51 181.61 836.82 180.88 836.82 180.12 L 836.82 155.49 C 836.82 154.73 836.51 154.00 835.97 153.46 C 835.43 152.92 834.71 152.62 833.94 152.62 Z" fill="#d6d6e3" fill-rule="nonzero" node-id="160" stroke="none" target-height="30.377975" target-width="30.373962" target-x="806.444" target-y="152.617"></path><path d="M 809.30 194.04 L 833.94 194.04 C 834.85 194.05 835.72 194.41 836.36 195.05 C 837.00 195.70 837.37 196.57 837.37 197.47 L 837.37 222.10 C 837.37 223.01 837.01 223.88 836.37 224.52 C 835.72 225.16 834.85 225.53 833.94 225.53 L 809.31 225.53 C 808.86 225.53 808.42 225.44 808.00 225.27 C 807.59 225.09 807.21 224.84 806.89 224.52 C 806.57 224.20 806.32 223.82 806.15 223.41 C 805.98 222.99 805.89 222.55 805.89 222.10 L 805.89 197.47 C 805.89 196.57 806.25 195.70 806.89 195.06 C 807.53 194.42 808.40 194.05 809.30 194.04 Z M 833.94 224.42 C 834.56 224.42 835.15 224.18 835.58 223.74 C 836.02 223.31 836.26 222.72 836.26 222.10 L 836.26 197.47 C 836.26 196.86 836.01 196.27 835.58 195.84 C 835.14 195.40 834.56 195.16 833.94 195.15 L 809.31 195.15 C 808.70 195.16 808.11 195.40 807.68 195.84 C 807.24 196.27 807.00 196.86 807.00 197.47 L 807.00 222.10 C 807.00 222.40 807.06 222.71 807.17 222.99 C 807.29 223.27 807.46 223.52 807.67 223.74 C 807.89 223.96 808.14 224.13 808.42 224.24 C 808.70 224.36 809.01 224.42 809.31 224.42 L 833.94 224.42 Z" fill="#d6d6e3" fill-rule="nonzero" node-id="162" stroke="none" target-height="31.483017" target-width="31.47998" target-x="805.892" target-y="194.04498"></path><path d="M 833.94 236.58 L 809.31 236.58 C 808.93 236.58 808.56 236.66 808.21 236.80 C 807.86 236.95 807.55 237.16 807.28 237.43 C 807.01 237.69 806.80 238.01 806.66 238.36 C 806.52 238.71 806.44 239.08 806.44 239.46 L 806.44 264.08 C 806.44 264.46 806.52 264.83 806.66 265.18 C 806.80 265.53 807.01 265.85 807.28 266.11 C 807.55 266.38 807.86 266.59 808.21 266.74 C 808.56 266.88 808.93 266.96 809.31 266.96 L 833.94 266.96 C 834.71 266.96 835.44 266.65 835.98 266.12 C 836.51 265.58 836.82 264.85 836.82 264.08 L 836.82 239.46 C 836.82 238.69 836.51 237.96 835.98 237.42 C 835.44 236.88 834.71 236.58 833.94 236.58 Z" fill="#8525fa" fill-rule="nonzero" node-id="164" stroke="none" target-height="30.378006" target-width="30.373962" target-x="806.444" target-y="236.58"></path><path d="M 885.67 68.65 L 861.03 68.65 C 860.27 68.66 859.55 68.96 859.01 69.50 C 858.47 70.04 858.17 70.77 858.17 71.53 L 858.17 96.17 C 858.17 96.92 858.47 97.65 859.01 98.19 C 859.55 98.73 860.28 99.03 861.03 99.03 L 885.67 99.03 C 886.43 99.03 887.16 98.73 887.70 98.19 C 888.24 97.65 888.54 96.93 888.55 96.17 L 888.55 71.53 C 888.54 70.77 888.24 70.04 887.70 69.50 C 887.16 68.96 886.43 68.66 885.67 68.65 Z" fill="#8525fa" fill-rule="nonzero" node-id="166" stroke="none" target-height="30.373497" target-width="30.374023" target-x="858.173" target-y="68.6545"></path><path d="M 885.67 110.63 L 861.03 110.63 C 860.27 110.64 859.55 110.94 859.01 111.48 C 858.47 112.02 858.17 112.75 858.17 113.51 L 858.17 138.15 C 858.17 138.91 858.47 139.63 859.01 140.17 C 859.55 140.71 860.28 141.01 861.03 141.01 L 885.67 141.01 C 886.43 141.01 887.16 140.71 887.70 140.17 C 888.24 139.63 888.54 138.91 888.55 138.15 L 888.55 113.52 C 888.55 112.75 888.24 112.02 887.70 111.48 C 887.16 110.94 886.43 110.64 885.67 110.63 Z" fill="#8525fa" fill-rule="nonzero" node-id="168" stroke="none" target-height="30.374008" target-width="30.374023" target-x="858.173" target-y="110.634995"></path><path d="M 885.67 152.62 L 861.03 152.62 C 860.27 152.62 859.55 152.93 859.01 153.46 C 858.47 154.00 858.17 154.73 858.17 155.49 L 858.17 180.12 C 858.17 180.50 858.24 180.87 858.39 181.22 C 858.53 181.57 858.74 181.88 859.01 182.15 C 859.27 182.42 859.59 182.63 859.94 182.78 C 860.29 182.92 860.66 182.99 861.03 182.99 L 885.67 182.99 C 886.43 182.99 887.16 182.69 887.70 182.15 C 888.24 181.61 888.55 180.88 888.55 180.12 L 888.55 155.49 C 888.54 154.73 888.24 154.00 887.70 153.46 C 887.16 152.92 886.43 152.62 885.67 152.62 Z" fill="#d6d6e3" fill-rule="nonzero" node-id="170" stroke="none" target-height="30.377975" target-width="30.374084" target-x="858.17194" target-y="152.617"></path><path d="M 885.67 194.60 L 861.03 194.60 C 860.27 194.60 859.55 194.91 859.01 195.44 C 858.47 195.98 858.17 196.71 858.17 197.47 L 858.17 222.10 C 858.17 222.48 858.24 222.85 858.39 223.20 C 858.53 223.55 858.74 223.86 859.01 224.13 C 859.27 224.40 859.59 224.61 859.94 224.75 C 860.29 224.90 860.66 224.97 861.03 224.97 L 885.67 224.97 C 886.43 224.97 887.16 224.67 887.70 224.13 C 888.24 223.59 888.55 222.86 888.55 222.10 L 888.55 197.48 C 888.54 196.72 888.24 195.99 887.70 195.45 C 887.16 194.91 886.43 194.60 885.67 194.60 L 885.67 194.60 Z" fill="#8525fa" fill-rule="nonzero" node-id="172" stroke="none" target-height="30.376999" target-width="30.374084" target-x="858.17194" target-y="194.598"></path><path d="M 885.67 236.58 L 861.03 236.58 C 860.66 236.58 860.29 236.66 859.94 236.80 C 859.59 236.95 859.27 237.16 859.01 237.43 C 858.74 237.69 858.53 238.01 858.39 238.36 C 858.24 238.71 858.17 239.08 858.17 239.46 L 858.17 264.08 C 858.17 264.46 858.24 264.83 858.39 265.18 C 858.53 265.53 858.74 265.85 859.01 266.11 C 859.27 266.38 859.59 266.59 859.94 266.74 C 860.29 266.88 860.66 266.96 861.03 266.96 L 885.67 266.96 C 886.43 266.96 887.16 266.65 887.70 266.12 C 888.24 265.58 888.55 264.85 888.55 264.08 L 888.55 239.46 C 888.55 238.69 888.24 237.96 887.70 237.42 C 887.16 236.88 886.43 236.58 885.67 236.58 Z" fill="#8525fa" fill-rule="nonzero" node-id="174" stroke="none" target-height="30.378006" target-width="30.374084" target-x="858.17194" target-y="236.58"></path><path d="M 937.40 68.65 L 912.76 68.65 C 912.00 68.66 911.27 68.96 910.74 69.50 C 910.20 70.04 909.90 70.77 909.90 71.53 L 909.90 96.17 C 909.90 96.92 910.20 97.65 910.74 98.19 C 911.27 98.73 912.00 99.03 912.76 99.03 L 937.40 99.03 C 938.16 99.03 938.89 98.73 939.43 98.19 C 939.97 97.65 940.27 96.93 940.28 96.17 L 940.28 71.53 C 940.27 70.77 939.97 70.04 939.43 69.50 C 938.89 68.96 938.16 68.66 937.40 68.65 Z" fill="#d6d6e3" fill-rule="nonzero" node-id="176" stroke="none" target-height="30.373497" target-width="30.375061" target-x="909.9" target-y="68.6545"></path><path d="M 937.40 110.63 L 912.76 110.63 C 912.00 110.64 911.27 110.94 910.74 111.48 C 910.20 112.02 909.90 112.75 909.90 113.51 L 909.90 138.15 C 909.90 138.91 910.20 139.63 910.74 140.17 C 911.27 140.71 912.00 141.01 912.76 141.01 L 937.40 141.01 C 938.16 141.01 938.89 140.71 939.43 140.17 C 939.97 139.63 940.27 138.91 940.28 138.15 L 940.28 113.52 C 940.27 112.75 939.97 112.02 939.43 111.48 C 938.89 110.94 938.16 110.64 937.40 110.63 Z" fill="#8525fa" fill-rule="nonzero" node-id="178" stroke="none" target-height="30.374008" target-width="30.375061" target-x="909.9" target-y="110.634995"></path><path d="M 937.40 152.62 L 912.76 152.62 C 912.00 152.62 911.27 152.93 910.74 153.46 C 910.20 154.00 909.90 154.73 909.90 155.49 L 909.90 180.12 C 909.90 180.50 909.97 180.87 910.12 181.22 C 910.26 181.57 910.47 181.88 910.73 182.15 C 911.00 182.42 911.32 182.63 911.66 182.78 C 912.01 182.92 912.38 182.99 912.76 182.99 L 937.40 182.99 C 938.16 182.99 938.89 182.69 939.43 182.15 C 939.97 181.61 940.27 180.88 940.27 180.12 L 940.27 155.49 C 940.27 154.73 939.97 154.00 939.43 153.46 C 938.89 152.92 938.16 152.62 937.40 152.62 Z" fill="#8525fa" fill-rule="nonzero" node-id="180" stroke="none" target-height="30.377975" target-width="30.375" target-x="909.899" target-y="152.617"></path><path d="M 937.40 194.60 L 912.76 194.60 C 912.00 194.60 911.27 194.91 910.74 195.44 C 910.20 195.98 909.90 196.71 909.90 197.47 L 909.90 222.10 C 909.90 222.48 909.97 222.85 910.12 223.20 C 910.26 223.55 910.47 223.86 910.73 224.13 C 911.00 224.40 911.32 224.61 911.66 224.75 C 912.01 224.90 912.38 224.97 912.76 224.97 L 937.40 224.97 C 938.16 224.97 938.89 224.67 939.43 224.13 C 939.97 223.59 940.27 222.86 940.27 222.10 L 940.27 197.48 C 940.27 196.72 939.97 195.99 939.43 195.45 C 938.89 194.91 938.16 194.60 937.40 194.60 L 937.40 194.60 Z" fill="#8525fa" fill-rule="nonzero" node-id="182" stroke="none" target-height="30.376999" target-width="30.375" target-x="909.899" target-y="194.598"></path><path d="M 937.40 236.58 L 912.76 236.58 C 912.38 236.58 912.01 236.66 911.66 236.80 C 911.32 236.95 911.00 237.16 910.74 237.43 C 910.47 237.69 910.26 238.01 910.12 238.36 C 909.97 238.71 909.90 239.08 909.90 239.46 L 909.90 264.08 C 909.90 264.46 909.97 264.83 910.12 265.18 C 910.26 265.53 910.47 265.85 910.73 266.11 C 911.00 266.38 911.32 266.59 911.66 266.74 C 912.01 266.88 912.38 266.96 912.76 266.96 L 937.40 266.96 C 938.16 266.96 938.89 266.65 939.43 266.12 C 939.97 265.58 940.27 264.85 940.27 264.08 L 940.27 239.46 C 940.27 238.69 939.97 237.96 939.43 237.42 C 938.89 236.88 938.16 236.58 937.40 236.58 Z" fill="#d6d6e3" fill-rule="nonzero" node-id="184" stroke="none" target-height="30.378006" target-width="30.375" target-x="909.899" target-y="236.58"></path><path d="M 989.12 68.65 L 964.49 68.65 C 963.73 68.66 963.00 68.96 962.47 69.50 C 961.93 70.04 961.63 70.77 961.63 71.53 L 961.63 96.17 C 961.63 96.92 961.93 97.65 962.47 98.19 C 963.00 98.73 963.73 99.03 964.49 99.03 L 989.13 99.03 C 989.89 99.03 990.62 98.73 991.15 98.19 C 991.69 97.65 992.00 96.93 992.00 96.17 L 992.00 71.53 C 992.00 70.77 991.70 70.04 991.16 69.50 C 990.62 68.96 989.89 68.66 989.13 68.65 L 989.12 68.65 Z" fill="#d6d6e3" fill-rule="nonzero" node-id="186" stroke="none" target-height="30.373497" target-width="30.374084" target-x="961.628" target-y="68.6545"></path><path d="M 989.12 110.63 L 964.49 110.63 C 963.73 110.64 963.00 110.94 962.47 111.48 C 961.93 112.02 961.63 112.75 961.63 113.51 L 961.63 138.15 C 961.63 138.91 961.93 139.63 962.47 140.17 C 963.00 140.71 963.73 141.01 964.49 141.01 L 989.13 141.01 C 989.89 141.01 990.62 140.71 991.15 140.17 C 991.69 139.63 992.00 138.91 992.00 138.15 L 992.00 113.52 C 992.00 112.75 991.70 112.02 991.16 111.48 C 990.62 110.94 989.89 110.64 989.12 110.63 Z" fill="#d6d6e3" fill-rule="nonzero" node-id="188" stroke="none" target-height="30.374008" target-width="30.374084" target-x="961.628" target-y="110.634995"></path><path d="M 989.12 152.62 L 964.49 152.62 C 963.73 152.62 963.00 152.93 962.47 153.46 C 961.93 154.00 961.63 154.73 961.63 155.49 L 961.63 180.12 C 961.63 180.50 961.70 180.87 961.84 181.22 C 961.99 181.57 962.20 181.88 962.46 182.15 C 962.73 182.42 963.04 182.63 963.39 182.78 C 963.74 182.92 964.11 182.99 964.49 182.99 L 989.12 182.99 C 989.89 182.99 990.62 182.69 991.16 182.15 C 991.70 181.61 992.00 180.88 992.00 180.12 L 992.00 155.49 C 992.00 154.73 991.70 154.00 991.16 153.46 C 990.62 152.92 989.89 152.62 989.12 152.62 Z" fill="#8525fa" fill-rule="nonzero" node-id="190" stroke="none" target-height="30.377975" target-width="30.373962" target-x="961.627" target-y="152.617"></path><path d="M 989.12 194.60 L 964.49 194.60 C 963.73 194.60 963.00 194.91 962.47 195.45 C 961.93 195.99 961.63 196.71 961.63 197.47 L 961.63 222.10 C 961.63 222.48 961.70 222.85 961.84 223.20 C 961.99 223.55 962.20 223.86 962.46 224.13 C 962.73 224.40 963.04 224.61 963.39 224.75 C 963.74 224.90 964.11 224.97 964.49 224.97 L 989.12 224.97 C 989.89 224.97 990.62 224.67 991.16 224.13 C 991.70 223.59 992.00 222.86 992.00 222.10 L 992.00 197.48 C 992.00 196.72 991.70 195.99 991.16 195.45 C 990.62 194.91 989.89 194.60 989.12 194.60 L 989.12 194.60 Z" fill="#d6d6e3" fill-rule="nonzero" node-id="192" stroke="none" target-height="30.376999" target-width="30.373962" target-x="961.627" target-y="194.598"></path><path d="M 989.12 236.58 L 964.49 236.58 C 964.11 236.58 963.74 236.66 963.39 236.80 C 963.04 236.95 962.73 237.16 962.46 237.43 C 962.20 237.69 961.99 238.01 961.84 238.36 C 961.70 238.71 961.63 239.08 961.63 239.46 L 961.63 264.08 C 961.63 264.46 961.70 264.83 961.84 265.18 C 961.99 265.53 962.20 265.85 962.46 266.11 C 962.73 266.38 963.04 266.59 963.39 266.74 C 963.74 266.88 964.11 266.96 964.49 266.96 L 989.12 266.96 C 989.89 266.96 990.62 266.65 991.16 266.12 C 991.70 265.58 992.00 264.85 992.00 264.08 L 992.00 239.46 C 992.00 238.69 991.70 237.96 991.16 237.42 C 990.62 236.88 989.89 236.58 989.12 236.58 Z" fill="#d6d6e3" fill-rule="nonzero" node-id="194" stroke="none" target-height="30.378006" target-width="30.373962" target-x="961.627" target-y="236.58"></path><path d="M 347.98 395.49 L 281.20 395.49 L 281.20 457.49 L 347.98 457.49 L 347.98 395.49 Z" fill="#ed9da0" fill-rule="nonzero" group-id="1" node-id="198" stroke="none" target-height="62.00299" target-width="66.77304" target-x="281.205" target-y="395.487"></path><path d="M 454.56 956.26 C 451.79 956.33 449.00 956.36 446.21 956.36 C 379.91 956.36 283.31 934.82 207.63 882.94 C 201.37 878.65 208.39 858.31 207.63 819.09 L 370.90 796.14 L 452.85 862.46 L 454.56 956.26 Z" fill="#090814" fill-rule="nonzero" group-id="1" node-id="200" stroke="none" target-height="160.2149" target-width="253.18205" target-x="201.37398" target-y="796.14307"></path><path d="M 369.21 867.00 L 368.52 867.00 L 369.11 866.92 L 369.21 867.00 Z" fill="#2f2e41" fill-rule="nonzero" group-id="1" node-id="202" stroke="none" target-height="0.07702637" target-width="0.68600464" target-x="368.521" target-y="866.921"></path><path d="M 310.27 407.92 C 352.01 407.92 385.85 374.08 385.85 332.34 C 385.85 290.60 352.01 256.76 310.27 256.76 C 268.53 256.76 234.69 290.60 234.69 332.34 C 234.69 374.08 268.53 407.92 310.27 407.92 Z" fill="#ed9da0" fill-rule="nonzero" group-id="1" node-id="204" stroke="none" target-height="151.15799" target-width="151.15804" target-x="234.688" target-y="256.759"></path><path d="M 376.45 276.93 C 376.45 276.93 396.22 239.13 352.73 235.70 C 352.73 235.70 315.66 202.07 277.87 229.55 C 277.87 229.55 257.25 229.55 245.98 252.88 C 245.98 252.88 229.77 246.73 226.21 263.18 C 226.21 263.18 214.35 297.54 226.21 328.46 C 238.07 359.38 242.01 362.81 242.01 362.81 C 242.01 362.81 222.52 297.99 269.96 294.55 C 317.41 291.12 370.51 261.47 374.46 299.26 C 378.41 337.05 384.36 346.36 384.36 346.36 C 384.36 346.36 421.92 292.38 376.45 276.93 Z" fill="#090814" fill-rule="nonzero" group-id="1" node-id="206" stroke="none" target-height="160.74402" target-width="207.57594" target-x="214.34502" target-y="202.068"></path><path d="M 505.77 518.60 L 505.54 519.88 L 502.80 534.31 L 483.92 634.10 L 482.80 639.97 L 480.46 652.39 L 477.25 669.34 L 470.14 706.90 L 468.10 717.66 L 467.34 721.70 L 467.07 723.12 L 464.96 734.26 L 464.32 737.62 L 459.16 775.82 L 459.16 813.92 L 454.85 866.91 L 454.86 866.99 L 202.87 863.60 C 193.13 857.29 182.25 794.21 189.40 735.16 L 189.35 734.24 L 188.74 721.69 L 188.67 720.07 L 188.55 717.65 L 186.21 669.33 L 186.17 668.53 L 185.46 653.89 L 184.79 639.96 L 184.51 634.09 L 181.66 575.31 L 179.74 535.40 L 178.06 500.65 L 184.82 498.36 L 257.11 473.79 L 287.05 434.87 L 349.38 435.33 L 379.89 435.56 L 430.80 482.78 L 442.38 488.31 L 442.47 488.36 L 450.78 492.33 L 471.84 502.38 L 494.11 513.03 L 505.54 518.48 L 505.77 518.60 Z" fill="#f2f2f2" fill-rule="nonzero" group-id="1" node-id="208" stroke="none" target-height="432.1251" target-width="327.714" target-x="178.06" target-y="434.866"></path><path d="M 295.10 753.61 C 290.53 755.38 285.63 756.13 280.75 755.80 C 275.86 755.47 271.11 754.07 266.82 751.71 C 262.53 749.34 258.81 746.07 255.93 742.11 C 253.04 738.15 251.06 733.61 250.12 728.80 L 132.24 712.08 L 173.22 665.72 L 278.87 688.71 C 287.06 687.67 295.33 689.66 302.14 694.31 C 308.95 698.96 313.82 705.95 315.82 713.95 C 317.82 721.95 316.82 730.41 313.00 737.72 C 309.18 745.03 302.81 750.69 295.10 753.61 Z" fill="#ed9da0" fill-rule="nonzero" group-id="1" node-id="210" stroke="none" target-height="90.406006" target-width="185.58202" target-x="132.239" target-y="665.723"></path><path d="M 242.55 669.34 C 240.36 666.57 237.27 664.66 233.82 663.95 L 185.45 653.89 L 180.49 652.87 C 177.60 652.26 174.87 651.06 172.49 649.33 C 170.10 647.60 168.10 645.39 166.63 642.83 C 165.10 640.15 164.17 637.17 163.91 634.09 C 163.69 631.30 164.02 628.48 164.90 625.82 L 181.66 575.32 L 192.53 542.55 C 193.85 538.60 194.63 534.49 194.85 530.33 C 195.45 518.82 191.89 507.47 184.81 498.37 C 178.59 490.38 169.96 484.59 160.20 481.87 C 150.44 479.15 140.06 479.65 130.60 483.28 C 130.32 483.38 130.03 483.49 129.76 483.61 C 122.97 486.31 116.91 490.56 112.05 496.02 C 107.19 501.47 103.67 507.98 101.76 515.03 L 89.94 558.01 L 65.57 646.60 C 63.13 655.48 62.64 664.78 64.13 673.86 C 65.62 682.95 69.05 691.60 74.19 699.24 C 79.33 706.87 86.07 713.31 93.93 718.10 C 101.79 722.89 110.59 725.93 119.73 727.00 L 189.39 735.17 L 221.63 738.95 C 225.36 739.40 229.12 738.42 232.16 736.23 C 235.20 734.03 237.30 730.76 238.04 727.08 C 238.10 726.88 238.14 726.68 238.16 726.47 L 238.94 721.69 L 245.50 681.45 L 245.56 681.04 C 245.91 678.99 245.81 676.88 245.29 674.87 C 244.78 672.85 243.84 670.97 242.55 669.34 Z" fill="#f2f2f2" fill-rule="nonzero" group-id="1" node-id="212" stroke="none" target-height="260.24307" target-width="183.2657" target-x="62.6403" target-y="479.155"></path><path d="M 370.19 754.90 C 374.96 756.01 379.92 756.06 384.71 755.04 C 389.50 754.03 394.01 751.97 397.93 749.03 C 401.84 746.08 405.06 742.31 407.36 737.99 C 409.65 733.66 410.97 728.89 411.23 723.99 L 525.57 690.81 L 478.46 650.70 L 377.10 688.36 C 368.85 688.48 360.94 691.62 354.85 697.18 C 348.76 702.75 344.93 710.36 344.08 718.56 C 343.23 726.76 345.41 735.00 350.23 741.70 C 355.04 748.39 362.14 753.09 370.19 754.90 Z" fill="#ed9da0" fill-rule="nonzero" group-id="1" node-id="214" stroke="none" target-height="105.35693" target-width="182.344" target-x="343.226" target-y="650.701"></path><path d="M 582.34 616.59 L 527.95 491.43 C 523.51 481.16 515.56 472.79 505.53 467.81 C 502.43 466.29 499.17 465.10 495.82 464.27 C 495.30 464.14 494.78 464.02 494.26 463.92 C 487.14 462.36 479.76 462.50 472.71 464.31 C 466.26 465.97 460.24 468.97 455.02 473.11 C 449.81 477.25 445.53 482.45 442.46 488.35 C 442.43 488.40 442.40 488.45 442.38 488.51 C 438.95 495.14 437.12 502.48 437.05 509.95 C 436.98 517.41 438.67 524.79 441.97 531.49 L 442.64 532.84 L 481.07 610.02 C 482.38 612.66 483.12 615.54 483.24 618.49 C 483.36 621.43 482.85 624.37 481.76 627.11 C 480.66 629.84 479.00 632.32 476.88 634.37 C 474.76 636.41 472.23 637.99 469.46 638.99 L 466.76 639.97 L 418.22 657.49 C 414.57 658.79 411.58 661.46 409.86 664.92 C 408.14 668.38 407.83 672.38 409.00 676.07 L 409.12 676.46 L 422.73 719.99 C 422.79 720.19 422.86 720.39 422.94 720.59 C 423.06 720.97 423.20 721.33 423.38 721.69 C 424.82 724.93 427.38 727.55 430.59 729.08 C 433.79 730.60 437.44 730.94 440.87 730.02 L 467.06 723.10 L 472.41 721.68 L 540.06 703.83 C 548.96 701.48 557.25 697.23 564.35 691.38 C 571.46 685.53 577.22 678.21 581.23 669.92 C 585.25 661.64 587.42 652.58 587.62 643.38 C 587.81 634.17 586.01 625.04 582.34 616.59 L 582.34 616.59 Z" fill="#f2f2f2" fill-rule="nonzero" group-id="1" node-id="216" stroke="none" target-height="268.573" target-width="179.97299" target-x="407.83304" target-y="462.364"></path><path d="M 73.42 721.69 C 83.58 741.00 86.86 758.90 104.88 775.81 L 597.67 775.81 C 602.49 775.82 607.10 777.74 610.51 781.14 C 613.91 784.55 615.83 789.17 615.83 793.99 L 616.55 920.68 C 647.31 906.55 676.11 888.51 702.25 867.00 C 709.50 861.03 716.54 854.81 723.34 848.34 C 727.80 844.11 732.15 839.78 736.40 835.35 C 768.22 802.20 804.94 763.74 823.49 721.69 L 73.42 721.69 Z" fill="#090814" fill-rule="nonzero" group-id="1" node-id="218" stroke="none" target-height="198.98804" target-width="750.0642" target-x="73.4248" target-y="721.694"></path><path d="M 736.40 835.35 C 732.16 839.78 727.81 844.11 723.35 848.34 L 616.92 848.34 L 616.92 835.35 L 736.40 835.35 Z" fill="#ffffff" fill-rule="nonzero" group-id="1" node-id="220" stroke="none" target-height="12.988037" target-width="119.48297" target-x="616.918" target-y="835.34796"></path><path d="M 504.78 419.97 C 504.25 419.00 503.48 418.19 502.53 417.62 C 501.58 417.06 500.50 416.76 499.39 416.76 L 136.73 416.76 C 135.10 416.77 133.54 417.42 132.39 418.57 C 131.25 419.72 130.60 421.28 130.60 422.90 L 130.60 639.97 L 505.53 639.97 L 505.53 422.90 C 505.54 421.88 505.28 420.87 504.78 419.97 Z" fill="#090814" fill-rule="nonzero" group-id="1" node-id="222" stroke="none" target-height="223.20401" target-width="374.93903" target-x="130.598" target-y="416.762"></path><path d="M 130.27 634.09 L 130.27 660.88 C 130.27 663.12 131.16 665.27 132.75 666.86 C 134.33 668.44 136.48 669.33 138.72 669.33 L 277.11 669.33 L 277.11 722.19 L 275.27 722.19 C 275.13 722.19 274.98 722.22 274.85 722.28 C 274.72 722.33 274.60 722.41 274.49 722.52 C 274.39 722.62 274.31 722.74 274.26 722.87 C 274.20 723.00 274.17 723.15 274.17 723.29 L 274.17 726.97 C 274.17 727.26 274.29 727.54 274.49 727.75 C 274.70 727.95 274.98 728.07 275.27 728.07 L 361.18 728.07 C 361.47 728.07 361.75 727.95 361.96 727.75 C 362.16 727.54 362.28 727.26 362.28 726.97 L 362.28 723.29 C 362.28 723.00 362.16 722.72 361.96 722.51 C 361.75 722.31 361.47 722.19 361.18 722.19 L 359.34 722.19 L 359.34 669.33 L 497.73 669.33 C 499.97 669.33 502.12 668.44 503.71 666.86 C 505.29 665.27 506.18 663.12 506.18 660.88 L 506.18 634.09 L 130.27 634.09 Z" fill="#090814" fill-rule="nonzero" group-id="1" node-id="224" stroke="none" target-height="93.97699" target-width="375.914" target-x="130.269" target-y="634.089"></path><path d="M 313.68 557.21 C 332.81 557.21 348.32 541.70 348.32 522.58 C 348.32 503.45 332.81 487.94 313.68 487.94 C 294.56 487.94 279.05 503.45 279.05 522.58 C 279.05 541.70 294.56 557.21 313.68 557.21 Z" fill="#8525fa" fill-rule="nonzero" group-id="1" node-id="226" stroke="none" target-height="69.265015" target-width="69.26401" target-x="279.052" target-y="487.945"></path><path d="M 401.92 328.21 L 396.40 328.21 C 396.40 286.39 355.01 258.99 313.26 258.97 C 307.19 258.95 301.13 259.54 295.18 260.73 C 288.47 262.07 281.51 263.67 274.68 265.76 C 247.72 274.02 222.72 290.00 222.72 328.21 C 222.71 335.63 223.66 343.02 225.53 350.20 L 220.17 351.60 C 218.19 343.96 217.19 336.10 217.19 328.21 C 217.19 294.82 230.90 271.89 254.57 258.22 C 267.02 251.03 282.21 246.39 299.61 244.13 C 306.85 243.17 314.17 242.95 321.45 243.47 C 369.45 246.92 401.92 283.74 401.92 328.21 Z" fill="#8525fa" fill-rule="nonzero" group-id="1" node-id="228" stroke="none" target-height="108.64601" target-width="184.73402" target-x="217.18898" target-y="242.94899"></path><path d="M 411.13 331.27 L 408.95 315.17 C 408.64 312.85 407.86 310.61 406.67 308.59 C 405.47 306.58 403.89 304.82 402.01 303.42 C 400.13 302.03 397.99 301.02 395.72 300.46 C 393.44 299.90 391.08 299.80 388.76 300.17 L 385.31 300.64 C 383.39 300.90 381.66 301.91 380.49 303.44 C 379.32 304.98 378.81 306.92 379.07 308.83 L 384.10 345.93 C 384.31 347.44 384.99 348.85 386.04 349.96 C 387.09 351.06 388.46 351.81 389.96 352.09 C 390.41 352.18 390.86 352.23 391.31 352.23 C 391.64 352.23 391.96 352.20 392.29 352.16 L 396.16 351.64 C 398.52 351.33 400.79 350.53 402.83 349.31 C 404.88 348.09 406.65 346.46 408.04 344.53 C 408.34 344.11 408.63 343.68 408.89 343.23 C 410.96 339.61 411.75 335.40 411.13 331.27 Z" fill="#8525fa" fill-rule="nonzero" group-id="1" node-id="230" stroke="none" target-height="52.426025" target-width="32.94394" target-x="378.81104" target-y="299.8"></path><path d="M 411.14 331.27 L 408.96 315.16 C 408.42 311.09 406.46 307.35 403.43 304.59 L 408.44 341.50 C 408.51 342.09 408.66 342.67 408.89 343.23 C 410.96 339.61 411.75 335.39 411.13 331.27 L 411.14 331.27 Z" fill="#090814" fill-rule="nonzero" group-id="1" node-id="232" stroke="none" target-height="38.639984" target-width="8.325043" target-x="403.42896" target-y="304.587"></path><path d="M 242.64 366.60 L 234.12 331.18 C 233.81 329.90 233.14 328.75 232.18 327.85 C 231.22 326.95 230.02 326.36 228.72 326.15 C 228.35 326.09 227.98 326.06 227.61 326.06 C 227.09 326.06 226.57 326.13 226.06 326.25 L 222.77 327.05 C 218.52 328.07 214.86 330.74 212.58 334.46 C 210.30 338.19 209.59 342.67 210.60 346.92 L 214.42 362.80 C 215.29 366.54 217.37 369.89 220.33 372.34 C 220.81 372.73 221.31 373.08 221.83 373.41 C 223.69 374.57 225.76 375.35 227.91 375.70 C 230.07 376.05 232.28 375.97 234.41 375.45 L 237.70 374.65 C 238.56 374.45 239.38 374.07 240.09 373.53 C 241.16 372.76 241.97 371.69 242.42 370.45 C 242.87 369.22 242.95 367.87 242.64 366.60 Z" fill="#8525fa" fill-rule="nonzero" group-id="1" node-id="234" stroke="none" target-height="49.992004" target-width="33.36197" target-x="209.58702" target-y="326.061"></path><path d="M 212.54 339.90 C 212.30 338.92 211.86 337.99 211.24 337.19 C 210.04 340.29 209.82 343.69 210.61 346.92 L 214.43 362.80 C 215.30 366.54 217.37 369.89 220.33 372.34 L 212.54 339.90 Z" fill="#090814" fill-rule="nonzero" group-id="1" node-id="236" stroke="none" target-height="35.149048" target-width="10.509003" target-x="209.825" target-y="337.192"></path></g></svg>